<?xml version="1.0" encoding="utf-8" standalone="no"?>
<!DOCTYPE svg PUBLIC "-//W3C//DTD SVG 1.1//EN"
  "http://www.w3.org/Graphics/SVG/1.1/DTD/svg11.dtd">
<svg xmlns:xlink="http://www.w3.org/1999/xlink" width="460.8pt" height="345.6pt" viewBox="0 0 460.8 345.6" xmlns="http://www.w3.org/2000/svg" version="1.1">
 <metadata>
  <rdf:RDF xmlns:dc="http://purl.org/dc/elements/1.1/" xmlns:cc="http://creativecommons.org/ns#" xmlns:rdf="http://www.w3.org/1999/02/22-rdf-syntax-ns#">
   <cc:Work>
    <dc:type rdf:resource="http://purl.org/dc/dcmitype/StillImage"/>
    <dc:date>2025-01-24T02:07:43.283477</dc:date>
    <dc:format>image/svg+xml</dc:format>
    <dc:creator>
     <cc:Agent>
      <dc:title>Matplotlib v3.10.0, https://matplotlib.org/</dc:title>
     </cc:Agent>
    </dc:creator>
   </cc:Work>
  </rdf:RDF>
 </metadata>
 <defs>
  <style type="text/css">*{stroke-linejoin: round; stroke-linecap: butt}</style>
 </defs>
 <g id="figure_1">
  <g id="patch_1">
   <path d="M 0 345.6 
L 460.8 345.6 
L 460.8 0 
L 0 0 
z
" style="fill: #ffffff"/>
  </g>
  <g id="axes_1">
   <g id="patch_2">
    <path d="M 47.81 303.64 
L 450 303.64 
L 450 10.8 
L 47.81 10.8 
z
" style="fill: #ffffff"/>
   </g>
   <g id="FillBetweenPolyCollection_1">
    <path d="M 66.091364 24.110909 
L 66.091364 204.577653 
L 68.133974 223.281625 
L 70.176585 226.754782 
L 72.219195 234.478625 
L 74.261805 236.415551 
L 76.304416 237.347721 
L 78.347026 241.728692 
L 80.389637 248.595189 
L 82.432247 249.183003 
L 84.474858 244.851606 
L 86.517468 247.291941 
L 88.560079 247.170087 
L 90.602689 251.729998 
L 92.6453 250.038565 
L 94.68791 250.526015 
L 96.730521 251.23588 
L 98.773131 251.589952 
L 100.815741 251.173293 
L 102.858352 251.823178 
L 104.900962 255.877742 
L 106.943573 253.984328 
L 108.986183 250.065489 
L 111.028794 252.941741 
L 113.071404 254.852022 
L 115.114015 254.831869 
L 117.156625 253.441432 
L 119.199236 254.528705 
L 121.241846 253.610904 
L 123.284457 252.280906 
L 125.327067 254.95215 
L 127.369678 254.940077 
L 129.412288 251.4035 
L 131.454898 253.979896 
L 133.497509 255.333564 
L 135.540119 257.29619 
L 137.58273 254.377305 
L 139.62534 253.150072 
L 141.667951 255.070738 
L 143.710561 253.277495 
L 145.753172 255.262681 
L 147.795782 255.223593 
L 149.838393 255.206731 
L 151.881003 257.863831 
L 153.923614 254.160911 
L 155.966224 254.606556 
L 158.008834 254.100624 
L 160.051445 253.068384 
L 162.094055 253.218531 
L 164.136666 256.000088 
L 166.179276 255.408635 
L 168.221887 256.944643 
L 170.264497 252.285325 
L 172.307108 256.131399 
L 174.349718 255.441101 
L 176.392329 253.052085 
L 178.434939 251.111607 
L 180.47755 256.24339 
L 182.52016 255.057406 
L 184.56277 254.173071 
L 186.605381 255.078497 
L 188.647991 254.777579 
L 190.690602 256.468077 
L 192.733212 257.24031 
L 194.775823 259.595151 
L 196.818433 258.589056 
L 198.861044 258.439364 
L 200.903654 261.272648 
L 202.946265 261.157795 
L 204.988875 259.104207 
L 207.031486 259.167732 
L 209.074096 260.755263 
L 211.116706 260.345085 
L 213.159317 258.847434 
L 215.201927 260.030937 
L 217.244538 259.611968 
L 219.287148 258.478021 
L 221.329759 256.711367 
L 223.372369 259.659343 
L 225.41498 260.822234 
L 227.45759 261.044849 
L 229.500201 262.70937 
L 231.542811 261.775342 
L 233.585422 258.471057 
L 235.628032 259.941086 
L 237.670642 260.386395 
L 239.713253 261.817185 
L 241.755863 258.410265 
L 243.798474 258.352061 
L 245.841084 261.199651 
L 247.883695 261.870098 
L 249.926305 260.556066 
L 251.968916 261.121232 
L 254.011526 258.379138 
L 256.054137 259.165325 
L 258.096747 260.689096 
L 260.139358 263.01883 
L 262.181968 262.470376 
L 264.224578 259.845497 
L 266.267189 261.950336 
L 268.309799 259.736253 
L 270.35241 261.749031 
L 272.39502 263.341318 
L 274.437631 263.404974 
L 276.480241 263.79041 
L 278.522852 263.025766 
L 280.565462 262.345259 
L 282.608073 263.541616 
L 284.650683 264.366848 
L 286.693294 262.666266 
L 288.735904 261.596811 
L 290.778514 261.48569 
L 292.821125 260.042853 
L 294.863735 262.68154 
L 296.906346 260.116132 
L 298.948956 265.078084 
L 300.991567 261.097455 
L 303.034177 264.562504 
L 305.076788 264.0124 
L 307.119398 262.367441 
L 309.162009 258.565045 
L 311.204619 258.320195 
L 313.24723 258.228898 
L 315.28984 259.352247 
L 317.33245 261.00578 
L 319.375061 260.246424 
L 321.417671 261.397289 
L 323.460282 262.939555 
L 325.502892 263.253727 
L 327.545503 260.205297 
L 329.588113 263.683598 
L 331.630724 263.217455 
L 333.673334 261.869574 
L 335.715945 263.482594 
L 337.758555 262.58614 
L 339.801166 264.879205 
L 341.843776 262.150235 
L 343.886386 262.485283 
L 345.928997 263.986043 
L 347.971607 263.08916 
L 350.014218 262.565016 
L 352.056828 264.510128 
L 354.099439 263.662002 
L 356.142049 262.891841 
L 358.18466 261.364968 
L 360.22727 266.50998 
L 362.269881 264.76653 
L 364.312491 263.335207 
L 366.355102 264.852651 
L 368.397712 262.740897 
L 370.440322 262.922837 
L 372.482933 263.823081 
L 374.525543 263.375842 
L 376.568154 264.89603 
L 378.610764 265.980727 
L 380.653375 262.2318 
L 382.695985 264.094445 
L 384.738596 262.599213 
L 386.781206 263.011971 
L 388.823817 263.373897 
L 390.866427 262.296 
L 392.909038 264.90009 
L 394.951648 266.023956 
L 396.994259 265.210529 
L 399.036869 266.368972 
L 401.079479 263.157268 
L 403.12209 263.576792 
L 405.1647 263.552323 
L 407.207311 264.863501 
L 409.249921 262.453613 
L 411.292532 263.525139 
L 413.335142 262.482245 
L 415.377753 264.120923 
L 417.420363 261.288449 
L 419.462974 264.749773 
L 421.505584 264.538383 
L 423.548195 263.804911 
L 425.590805 263.299837 
L 427.633415 262.937582 
L 429.676026 260.694287 
L 431.718636 259.120606 
L 431.718636 127.102454 
L 431.718636 127.102454 
L 429.676026 126.346112 
L 427.633415 127.919133 
L 425.590805 127.948864 
L 423.548195 127.874173 
L 421.505584 128.43628 
L 419.462974 128.122103 
L 417.420363 125.092731 
L 415.377753 128.396 
L 413.335142 126.217756 
L 411.292532 126.658371 
L 409.249921 126.672907 
L 407.207311 128.091506 
L 405.1647 126.464978 
L 403.12209 126.933875 
L 401.079479 126.33461 
L 399.036869 128.971692 
L 396.994259 127.721973 
L 394.951648 128.434855 
L 392.909038 127.605112 
L 390.866427 124.930239 
L 388.823817 125.756373 
L 386.781206 126.250172 
L 384.738596 125.941415 
L 382.695985 126.933442 
L 380.653375 124.401482 
L 378.610764 128.668424 
L 376.568154 127.627967 
L 374.525543 127.037285 
L 372.482933 126.658262 
L 370.440322 126.525921 
L 368.397712 125.726866 
L 366.355102 127.176815 
L 364.312491 125.497367 
L 362.269881 126.353992 
L 360.22727 129.037987 
L 358.18466 124.671971 
L 356.142049 125.120099 
L 354.099439 126.238335 
L 352.056828 127.14212 
L 350.014218 125.430422 
L 347.971607 127.184165 
L 345.928997 127.980642 
L 343.886386 126.450575 
L 341.843776 125.36716 
L 339.801166 127.928463 
L 337.758555 126.446771 
L 335.715945 126.704542 
L 333.673334 124.874729 
L 331.630724 125.951916 
L 329.588113 126.284918 
L 327.545503 123.205554 
L 325.502892 126.842001 
L 323.460282 126.919076 
L 321.417671 125.483492 
L 319.375061 125.053184 
L 317.33245 125.651697 
L 315.28984 124.343329 
L 313.24723 122.425998 
L 311.204619 120.971859 
L 309.162009 120.827886 
L 307.119398 123.610494 
L 305.076788 125.371358 
L 303.034177 126.430062 
L 300.991567 123.009143 
L 298.948956 126.341071 
L 296.906346 121.548721 
L 294.863735 123.469641 
L 292.821125 121.128601 
L 290.778514 122.26673 
L 288.735904 122.419363 
L 286.693294 123.187455 
L 284.650683 125.592219 
L 282.608073 124.312854 
L 280.565462 123.105258 
L 278.522852 123.806617 
L 276.480241 124.850316 
L 274.437631 125.273314 
L 272.39502 125.509212 
L 270.35241 124.555511 
L 268.309799 121.292674 
L 266.267189 123.757434 
L 264.224578 120.953309 
L 262.181968 124.148948 
L 260.139358 125.191585 
L 258.096747 123.707748 
L 256.054137 121.734273 
L 254.011526 121.61722 
L 251.968916 122.995538 
L 249.926305 122.833522 
L 247.883695 124.631131 
L 245.841084 123.680791 
L 243.798474 121.416692 
L 241.755863 121.866164 
L 239.713253 125.042339 
L 237.670642 123.569646 
L 235.628032 124.288884 
L 233.585422 120.993092 
L 231.542811 123.802967 
L 229.500201 125.986554 
L 227.45759 124.129488 
L 225.41498 122.632208 
L 223.372369 122.375155 
L 221.329759 120.066915 
L 219.287148 120.557594 
L 217.244538 121.971298 
L 215.201927 122.528929 
L 213.159317 121.095433 
L 211.116706 122.34968 
L 209.074096 123.324701 
L 207.031486 120.195801 
L 204.988875 120.221008 
L 202.946265 122.419812 
L 200.903654 123.01717 
L 198.861044 121.725623 
L 196.818433 121.439433 
L 194.775823 122.400404 
L 192.733212 120.570157 
L 190.690602 119.980621 
L 188.647991 118.067659 
L 186.605381 116.849481 
L 184.56277 115.741458 
L 182.52016 117.437867 
L 180.47755 118.494654 
L 178.434939 112.38602 
L 176.392329 115.197186 
L 174.349718 116.150789 
L 172.307108 116.455465 
L 170.264497 112.199783 
L 168.221887 116.465042 
L 166.179276 114.389987 
L 164.136666 115.342591 
L 162.094055 114.560917 
L 160.051445 114.966989 
L 158.008834 115.154641 
L 155.966224 116.034065 
L 153.923614 115.305416 
L 151.881003 117.761251 
L 149.838393 115.55385 
L 147.795782 114.36993 
L 145.753172 115.174577 
L 143.710561 112.787267 
L 141.667951 114.587214 
L 139.62534 113.997906 
L 137.58273 114.089957 
L 135.540119 116.888273 
L 133.497509 115.209906 
L 131.454898 115.314427 
L 129.412288 111.523724 
L 127.369678 114.14787 
L 125.327067 116.170754 
L 123.284457 113.081457 
L 121.241846 114.400076 
L 119.199236 116.268423 
L 117.156625 114.310012 
L 115.114015 115.568754 
L 113.071404 116.117894 
L 111.028794 113.494975 
L 108.986183 110.529439 
L 106.943573 113.61303 
L 104.900962 115.282627 
L 102.858352 110.726196 
L 100.815741 110.881362 
L 98.773131 111.80888 
L 96.730521 111.277617 
L 94.68791 109.163258 
L 92.6453 109.267262 
L 90.602689 111.15235 
L 88.560079 105.625516 
L 86.517468 106.238718 
L 84.474858 103.513553 
L 82.432247 106.096468 
L 80.389637 104.853634 
L 78.347026 99.403776 
L 76.304416 94.977447 
L 74.261805 94.036586 
L 72.219195 92.09583 
L 70.176585 83.101689 
L 68.133974 74.165078 
L 66.091364 24.110909 
z
" clip-path="url(#p3683f11bae)" style="fill: #1f77b4; fill-opacity: 0.5"/>
   </g>
   <g id="FillBetweenPolyCollection_2">
    <path d="M 66.091364 204.577653 
L 66.091364 265.834103 
L 68.133974 267.876732 
L 70.176585 269.961584 
L 72.219195 271.966342 
L 74.261805 273.805448 
L 76.304416 275.425806 
L 78.347026 276.829219 
L 80.389637 278.105176 
L 82.432247 279.187376 
L 84.474858 280.071875 
L 86.517468 280.813049 
L 88.560079 281.42748 
L 90.602689 281.940911 
L 92.6453 282.395158 
L 94.68791 282.765599 
L 96.730521 283.09676 
L 98.773131 283.359887 
L 100.815741 283.574073 
L 102.858352 283.807585 
L 104.900962 284.018118 
L 106.943573 284.160041 
L 108.986183 284.302928 
L 111.028794 284.372278 
L 113.071404 284.419537 
L 115.114015 284.441355 
L 117.156625 284.539405 
L 119.199236 284.563075 
L 121.241846 284.570726 
L 123.284457 284.561029 
L 125.327067 284.584667 
L 127.369678 284.609508 
L 129.412288 284.615795 
L 131.454898 284.588633 
L 133.497509 284.540488 
L 135.540119 284.650617 
L 137.58273 284.688408 
L 139.62534 284.654008 
L 141.667951 284.673376 
L 143.710561 284.70389 
L 145.753172 284.720926 
L 147.795782 284.737433 
L 149.838393 284.742906 
L 151.881003 284.728433 
L 153.923614 284.668593 
L 155.966224 284.65273 
L 158.008834 284.646182 
L 160.051445 284.577151 
L 162.094055 284.514661 
L 164.136666 284.446353 
L 166.179276 284.42406 
L 168.221887 284.412807 
L 170.264497 284.451988 
L 172.307108 284.497615 
L 174.349718 284.539074 
L 176.392329 284.551447 
L 178.434939 284.521865 
L 180.47755 284.512955 
L 182.52016 284.485109 
L 184.56277 284.474172 
L 186.605381 284.430093 
L 188.647991 284.394333 
L 190.690602 284.466156 
L 192.733212 284.539624 
L 194.775823 284.612738 
L 196.818433 284.685612 
L 198.861044 284.757086 
L 200.903654 284.82638 
L 202.946265 284.895395 
L 204.988875 284.963717 
L 207.031486 285.030958 
L 209.074096 285.096816 
L 211.116706 285.160851 
L 213.159317 285.224046 
L 215.201927 285.284312 
L 217.244538 285.344104 
L 219.287148 285.403487 
L 221.329759 285.461943 
L 223.372369 285.518385 
L 225.41498 285.574077 
L 227.45759 285.629101 
L 229.500201 285.682086 
L 231.542811 285.734144 
L 233.585422 285.785407 
L 235.628032 285.832143 
L 237.670642 285.878173 
L 239.713253 285.924414 
L 241.755863 285.970589 
L 243.798474 286.015256 
L 245.841084 286.058766 
L 247.883695 286.102237 
L 249.926305 286.145649 
L 251.968916 286.187329 
L 254.011526 286.227001 
L 256.054137 286.264174 
L 258.096747 286.299363 
L 260.139358 286.334911 
L 262.181968 286.372559 
L 264.224578 286.409836 
L 266.267189 286.444191 
L 268.309799 286.476826 
L 270.35241 286.507392 
L 272.39502 286.539707 
L 274.437631 286.57128 
L 276.480241 286.60257 
L 278.522852 286.633247 
L 280.565462 286.663478 
L 282.608073 286.692816 
L 284.650683 286.720812 
L 286.693294 286.74733 
L 288.735904 286.773204 
L 290.778514 286.797957 
L 292.821125 286.822034 
L 294.863735 286.844531 
L 296.906346 286.867257 
L 298.948956 286.889296 
L 300.991567 286.915723 
L 303.034177 286.93821 
L 305.076788 286.958085 
L 307.119398 286.979525 
L 309.162009 286.999531 
L 311.204619 287.008979 
L 313.24723 287.013368 
L 315.28984 287.017452 
L 317.33245 287.021209 
L 319.375061 287.025358 
L 321.417671 287.02937 
L 323.460282 287.033138 
L 325.502892 287.03716 
L 327.545503 287.041753 
L 329.588113 287.045543 
L 331.630724 287.049469 
L 333.673334 287.053729 
L 335.715945 287.057636 
L 337.758555 287.061692 
L 339.801166 287.065531 
L 341.843776 287.069873 
L 343.886386 287.073935 
L 345.928997 287.077815 
L 347.971607 287.081965 
L 350.014218 287.086135 
L 352.056828 287.090207 
L 354.099439 287.094338 
L 356.142049 287.098231 
L 358.18466 287.102465 
L 360.22727 287.106228 
L 362.269881 287.110333 
L 364.312491 287.11451 
L 366.355102 287.118406 
L 368.397712 287.122537 
L 370.440322 287.126621 
L 372.482933 287.130507 
L 374.525543 287.134378 
L 376.568154 287.138382 
L 378.610764 287.142253 
L 380.653375 287.146382 
L 382.695985 287.150215 
L 384.738596 287.154457 
L 386.781206 287.158381 
L 388.823817 287.162322 
L 390.866427 287.166373 
L 392.909038 287.170052 
L 394.951648 287.173842 
L 396.994259 287.177677 
L 399.036869 287.18145 
L 401.079479 287.185744 
L 403.12209 287.189754 
L 405.1647 287.193822 
L 407.207311 287.197824 
L 409.249921 287.201731 
L 411.292532 287.205413 
L 413.335142 287.209467 
L 415.377753 287.213249 
L 417.420363 287.217348 
L 419.462974 287.220902 
L 421.505584 287.224624 
L 423.548195 287.228552 
L 425.590805 287.232407 
L 427.633415 287.236428 
L 429.676026 287.240403 
L 431.718636 287.244314 
L 431.718636 259.120606 
L 431.718636 259.120606 
L 429.676026 260.694287 
L 427.633415 262.937582 
L 425.590805 263.299837 
L 423.548195 263.804911 
L 421.505584 264.538383 
L 419.462974 264.749773 
L 417.420363 261.288449 
L 415.377753 264.120923 
L 413.335142 262.482245 
L 411.292532 263.525139 
L 409.249921 262.453613 
L 407.207311 264.863501 
L 405.1647 263.552323 
L 403.12209 263.576792 
L 401.079479 263.157268 
L 399.036869 266.368972 
L 396.994259 265.210529 
L 394.951648 266.023956 
L 392.909038 264.90009 
L 390.866427 262.296 
L 388.823817 263.373897 
L 386.781206 263.011971 
L 384.738596 262.599213 
L 382.695985 264.094445 
L 380.653375 262.2318 
L 378.610764 265.980727 
L 376.568154 264.89603 
L 374.525543 263.375842 
L 372.482933 263.823081 
L 370.440322 262.922837 
L 368.397712 262.740897 
L 366.355102 264.852651 
L 364.312491 263.335207 
L 362.269881 264.76653 
L 360.22727 266.50998 
L 358.18466 261.364968 
L 356.142049 262.891841 
L 354.099439 263.662002 
L 352.056828 264.510128 
L 350.014218 262.565016 
L 347.971607 263.08916 
L 345.928997 263.986043 
L 343.886386 262.485283 
L 341.843776 262.150235 
L 339.801166 264.879205 
L 337.758555 262.58614 
L 335.715945 263.482594 
L 333.673334 261.869574 
L 331.630724 263.217455 
L 329.588113 263.683598 
L 327.545503 260.205297 
L 325.502892 263.253727 
L 323.460282 262.939555 
L 321.417671 261.397289 
L 319.375061 260.246424 
L 317.33245 261.00578 
L 315.28984 259.352247 
L 313.24723 258.228898 
L 311.204619 258.320195 
L 309.162009 258.565045 
L 307.119398 262.367441 
L 305.076788 264.0124 
L 303.034177 264.562504 
L 300.991567 261.097455 
L 298.948956 265.078084 
L 296.906346 260.116132 
L 294.863735 262.68154 
L 292.821125 260.042853 
L 290.778514 261.48569 
L 288.735904 261.596811 
L 286.693294 262.666266 
L 284.650683 264.366848 
L 282.608073 263.541616 
L 280.565462 262.345259 
L 278.522852 263.025766 
L 276.480241 263.79041 
L 274.437631 263.404974 
L 272.39502 263.341318 
L 270.35241 261.749031 
L 268.309799 259.736253 
L 266.267189 261.950336 
L 264.224578 259.845497 
L 262.181968 262.470376 
L 260.139358 263.01883 
L 258.096747 260.689096 
L 256.054137 259.165325 
L 254.011526 258.379138 
L 251.968916 261.121232 
L 249.926305 260.556066 
L 247.883695 261.870098 
L 245.841084 261.199651 
L 243.798474 258.352061 
L 241.755863 258.410265 
L 239.713253 261.817185 
L 237.670642 260.386395 
L 235.628032 259.941086 
L 233.585422 258.471057 
L 231.542811 261.775342 
L 229.500201 262.70937 
L 227.45759 261.044849 
L 225.41498 260.822234 
L 223.372369 259.659343 
L 221.329759 256.711367 
L 219.287148 258.478021 
L 217.244538 259.611968 
L 215.201927 260.030937 
L 213.159317 258.847434 
L 211.116706 260.345085 
L 209.074096 260.755263 
L 207.031486 259.167732 
L 204.988875 259.104207 
L 202.946265 261.157795 
L 200.903654 261.272648 
L 198.861044 258.439364 
L 196.818433 258.589056 
L 194.775823 259.595151 
L 192.733212 257.24031 
L 190.690602 256.468077 
L 188.647991 254.777579 
L 186.605381 255.078497 
L 184.56277 254.173071 
L 182.52016 255.057406 
L 180.47755 256.24339 
L 178.434939 251.111607 
L 176.392329 253.052085 
L 174.349718 255.441101 
L 172.307108 256.131399 
L 170.264497 252.285325 
L 168.221887 256.944643 
L 166.179276 255.408635 
L 164.136666 256.000088 
L 162.094055 253.218531 
L 160.051445 253.068384 
L 158.008834 254.100624 
L 155.966224 254.606556 
L 153.923614 254.160911 
L 151.881003 257.863831 
L 149.838393 255.206731 
L 147.795782 255.223593 
L 145.753172 255.262681 
L 143.710561 253.277495 
L 141.667951 255.070738 
L 139.62534 253.150072 
L 137.58273 254.377305 
L 135.540119 257.29619 
L 133.497509 255.333564 
L 131.454898 253.979896 
L 129.412288 251.4035 
L 127.369678 254.940077 
L 125.327067 254.95215 
L 123.284457 252.280906 
L 121.241846 253.610904 
L 119.199236 254.528705 
L 117.156625 253.441432 
L 115.114015 254.831869 
L 113.071404 254.852022 
L 111.028794 252.941741 
L 108.986183 250.065489 
L 106.943573 253.984328 
L 104.900962 255.877742 
L 102.858352 251.823178 
L 100.815741 251.173293 
L 98.773131 251.589952 
L 96.730521 251.23588 
L 94.68791 250.526015 
L 92.6453 250.038565 
L 90.602689 251.729998 
L 88.560079 247.170087 
L 86.517468 247.291941 
L 84.474858 244.851606 
L 82.432247 249.183003 
L 80.389637 248.595189 
L 78.347026 241.728692 
L 76.304416 237.347721 
L 74.261805 236.415551 
L 72.219195 234.478625 
L 70.176585 226.754782 
L 68.133974 223.281625 
L 66.091364 204.577653 
z
" clip-path="url(#p3683f11bae)" style="fill: #ff7f0e; fill-opacity: 0.5"/>
   </g>
   <g id="FillBetweenPolyCollection_3">
    <path d="M 66.091364 265.834103 
L 66.091364 290.329091 
L 68.133974 290.329091 
L 70.176585 290.329091 
L 72.219195 290.329091 
L 74.261805 290.329091 
L 76.304416 290.329091 
L 78.347026 290.329091 
L 80.389637 290.329091 
L 82.432247 290.329091 
L 84.474858 290.329091 
L 86.517468 290.329091 
L 88.560079 290.329091 
L 90.602689 290.329091 
L 92.6453 290.329091 
L 94.68791 290.329091 
L 96.730521 290.329091 
L 98.773131 290.329091 
L 100.815741 290.329091 
L 102.858352 290.329091 
L 104.900962 290.329091 
L 106.943573 290.329091 
L 108.986183 290.329091 
L 111.028794 290.329091 
L 113.071404 290.329091 
L 115.114015 290.329091 
L 117.156625 290.329091 
L 119.199236 290.329091 
L 121.241846 290.329091 
L 123.284457 290.329091 
L 125.327067 290.329091 
L 127.369678 290.329091 
L 129.412288 290.329091 
L 131.454898 290.329091 
L 133.497509 290.329091 
L 135.540119 290.329091 
L 137.58273 290.329091 
L 139.62534 290.329091 
L 141.667951 290.329091 
L 143.710561 290.329091 
L 145.753172 290.329091 
L 147.795782 290.329091 
L 149.838393 290.329091 
L 151.881003 290.329091 
L 153.923614 290.329091 
L 155.966224 290.329091 
L 158.008834 290.329091 
L 160.051445 290.329091 
L 162.094055 290.329091 
L 164.136666 290.329091 
L 166.179276 290.329091 
L 168.221887 290.329091 
L 170.264497 290.329091 
L 172.307108 290.329091 
L 174.349718 290.329091 
L 176.392329 290.329091 
L 178.434939 290.329091 
L 180.47755 290.329091 
L 182.52016 290.329091 
L 184.56277 290.329091 
L 186.605381 290.329091 
L 188.647991 290.329091 
L 190.690602 290.329091 
L 192.733212 290.329091 
L 194.775823 290.329091 
L 196.818433 290.329091 
L 198.861044 290.329091 
L 200.903654 290.329091 
L 202.946265 290.329091 
L 204.988875 290.329091 
L 207.031486 290.329091 
L 209.074096 290.329091 
L 211.116706 290.329091 
L 213.159317 290.329091 
L 215.201927 290.329091 
L 217.244538 290.329091 
L 219.287148 290.329091 
L 221.329759 290.329091 
L 223.372369 290.329091 
L 225.41498 290.329091 
L 227.45759 290.329091 
L 229.500201 290.329091 
L 231.542811 290.329091 
L 233.585422 290.329091 
L 235.628032 290.329091 
L 237.670642 290.329091 
L 239.713253 290.329091 
L 241.755863 290.329091 
L 243.798474 290.329091 
L 245.841084 290.329091 
L 247.883695 290.329091 
L 249.926305 290.329091 
L 251.968916 290.329091 
L 254.011526 290.329091 
L 256.054137 290.329091 
L 258.096747 290.329091 
L 260.139358 290.329091 
L 262.181968 290.329091 
L 264.224578 290.329091 
L 266.267189 290.329091 
L 268.309799 290.329091 
L 270.35241 290.329091 
L 272.39502 290.329091 
L 274.437631 290.329091 
L 276.480241 290.329091 
L 278.522852 290.329091 
L 280.565462 290.329091 
L 282.608073 290.329091 
L 284.650683 290.329091 
L 286.693294 290.329091 
L 288.735904 290.329091 
L 290.778514 290.329091 
L 292.821125 290.329091 
L 294.863735 290.329091 
L 296.906346 290.329091 
L 298.948956 290.329091 
L 300.991567 290.329091 
L 303.034177 290.329091 
L 305.076788 290.329091 
L 307.119398 290.329091 
L 309.162009 290.329091 
L 311.204619 290.329091 
L 313.24723 290.329091 
L 315.28984 290.329091 
L 317.33245 290.329091 
L 319.375061 290.329091 
L 321.417671 290.329091 
L 323.460282 290.329091 
L 325.502892 290.329091 
L 327.545503 290.329091 
L 329.588113 290.329091 
L 331.630724 290.329091 
L 333.673334 290.329091 
L 335.715945 290.329091 
L 337.758555 290.329091 
L 339.801166 290.329091 
L 341.843776 290.329091 
L 343.886386 290.329091 
L 345.928997 290.329091 
L 347.971607 290.329091 
L 350.014218 290.329091 
L 352.056828 290.329091 
L 354.099439 290.329091 
L 356.142049 290.329091 
L 358.18466 290.329091 
L 360.22727 290.329091 
L 362.269881 290.329091 
L 364.312491 290.329091 
L 366.355102 290.329091 
L 368.397712 290.329091 
L 370.440322 290.329091 
L 372.482933 290.329091 
L 374.525543 290.329091 
L 376.568154 290.329091 
L 378.610764 290.329091 
L 380.653375 290.329091 
L 382.695985 290.329091 
L 384.738596 290.329091 
L 386.781206 290.329091 
L 388.823817 290.329091 
L 390.866427 290.329091 
L 392.909038 290.329091 
L 394.951648 290.329091 
L 396.994259 290.329091 
L 399.036869 290.329091 
L 401.079479 290.329091 
L 403.12209 290.329091 
L 405.1647 290.329091 
L 407.207311 290.329091 
L 409.249921 290.329091 
L 411.292532 290.329091 
L 413.335142 290.329091 
L 415.377753 290.329091 
L 417.420363 290.329091 
L 419.462974 290.329091 
L 421.505584 290.329091 
L 423.548195 290.329091 
L 425.590805 290.329091 
L 427.633415 290.329091 
L 429.676026 290.329091 
L 431.718636 290.329091 
L 431.718636 287.244314 
L 431.718636 287.244314 
L 429.676026 287.240403 
L 427.633415 287.236428 
L 425.590805 287.232407 
L 423.548195 287.228552 
L 421.505584 287.224624 
L 419.462974 287.220902 
L 417.420363 287.217348 
L 415.377753 287.213249 
L 413.335142 287.209467 
L 411.292532 287.205413 
L 409.249921 287.201731 
L 407.207311 287.197824 
L 405.1647 287.193822 
L 403.12209 287.189754 
L 401.079479 287.185744 
L 399.036869 287.18145 
L 396.994259 287.177677 
L 394.951648 287.173842 
L 392.909038 287.170052 
L 390.866427 287.166373 
L 388.823817 287.162322 
L 386.781206 287.158381 
L 384.738596 287.154457 
L 382.695985 287.150215 
L 380.653375 287.146382 
L 378.610764 287.142253 
L 376.568154 287.138382 
L 374.525543 287.134378 
L 372.482933 287.130507 
L 370.440322 287.126621 
L 368.397712 287.122537 
L 366.355102 287.118406 
L 364.312491 287.11451 
L 362.269881 287.110333 
L 360.22727 287.106228 
L 358.18466 287.102465 
L 356.142049 287.098231 
L 354.099439 287.094338 
L 352.056828 287.090207 
L 350.014218 287.086135 
L 347.971607 287.081965 
L 345.928997 287.077815 
L 343.886386 287.073935 
L 341.843776 287.069873 
L 339.801166 287.065531 
L 337.758555 287.061692 
L 335.715945 287.057636 
L 333.673334 287.053729 
L 331.630724 287.049469 
L 329.588113 287.045543 
L 327.545503 287.041753 
L 325.502892 287.03716 
L 323.460282 287.033138 
L 321.417671 287.02937 
L 319.375061 287.025358 
L 317.33245 287.021209 
L 315.28984 287.017452 
L 313.24723 287.013368 
L 311.204619 287.008979 
L 309.162009 286.999531 
L 307.119398 286.979525 
L 305.076788 286.958085 
L 303.034177 286.93821 
L 300.991567 286.915723 
L 298.948956 286.889296 
L 296.906346 286.867257 
L 294.863735 286.844531 
L 292.821125 286.822034 
L 290.778514 286.797957 
L 288.735904 286.773204 
L 286.693294 286.74733 
L 284.650683 286.720812 
L 282.608073 286.692816 
L 280.565462 286.663478 
L 278.522852 286.633247 
L 276.480241 286.60257 
L 274.437631 286.57128 
L 272.39502 286.539707 
L 270.35241 286.507392 
L 268.309799 286.476826 
L 266.267189 286.444191 
L 264.224578 286.409836 
L 262.181968 286.372559 
L 260.139358 286.334911 
L 258.096747 286.299363 
L 256.054137 286.264174 
L 254.011526 286.227001 
L 251.968916 286.187329 
L 249.926305 286.145649 
L 247.883695 286.102237 
L 245.841084 286.058766 
L 243.798474 286.015256 
L 241.755863 285.970589 
L 239.713253 285.924414 
L 237.670642 285.878173 
L 235.628032 285.832143 
L 233.585422 285.785407 
L 231.542811 285.734144 
L 229.500201 285.682086 
L 227.45759 285.629101 
L 225.41498 285.574077 
L 223.372369 285.518385 
L 221.329759 285.461943 
L 219.287148 285.403487 
L 217.244538 285.344104 
L 215.201927 285.284312 
L 213.159317 285.224046 
L 211.116706 285.160851 
L 209.074096 285.096816 
L 207.031486 285.030958 
L 204.988875 284.963717 
L 202.946265 284.895395 
L 200.903654 284.82638 
L 198.861044 284.757086 
L 196.818433 284.685612 
L 194.775823 284.612738 
L 192.733212 284.539624 
L 190.690602 284.466156 
L 188.647991 284.394333 
L 186.605381 284.430093 
L 184.56277 284.474172 
L 182.52016 284.485109 
L 180.47755 284.512955 
L 178.434939 284.521865 
L 176.392329 284.551447 
L 174.349718 284.539074 
L 172.307108 284.497615 
L 170.264497 284.451988 
L 168.221887 284.412807 
L 166.179276 284.42406 
L 164.136666 284.446353 
L 162.094055 284.514661 
L 160.051445 284.577151 
L 158.008834 284.646182 
L 155.966224 284.65273 
L 153.923614 284.668593 
L 151.881003 284.728433 
L 149.838393 284.742906 
L 147.795782 284.737433 
L 145.753172 284.720926 
L 143.710561 284.70389 
L 141.667951 284.673376 
L 139.62534 284.654008 
L 137.58273 284.688408 
L 135.540119 284.650617 
L 133.497509 284.540488 
L 131.454898 284.588633 
L 129.412288 284.615795 
L 127.369678 284.609508 
L 125.327067 284.584667 
L 123.284457 284.561029 
L 121.241846 284.570726 
L 119.199236 284.563075 
L 117.156625 284.539405 
L 115.114015 284.441355 
L 113.071404 284.419537 
L 111.028794 284.372278 
L 108.986183 284.302928 
L 106.943573 284.160041 
L 104.900962 284.018118 
L 102.858352 283.807585 
L 100.815741 283.574073 
L 98.773131 283.359887 
L 96.730521 283.09676 
L 94.68791 282.765599 
L 92.6453 282.395158 
L 90.602689 281.940911 
L 88.560079 281.42748 
L 86.517468 280.813049 
L 84.474858 280.071875 
L 82.432247 279.187376 
L 80.389637 278.105176 
L 78.347026 276.829219 
L 76.304416 275.425806 
L 74.261805 273.805448 
L 72.219195 271.966342 
L 70.176585 269.961584 
L 68.133974 267.876732 
L 66.091364 265.834103 
z
" clip-path="url(#p3683f11bae)" style="fill: #2ca02c; fill-opacity: 0.5"/>
   </g>
   <g id="matplotlib.axis_1">
    <g id="xtick_1">
     <g id="line2d_1">
      <defs>
       <path id="m008bc6a42b" d="M 0 0 
L 0 3.5 
" style="stroke: #000000; stroke-width: 0.8"/>
      </defs>
      <g>
       <use xlink:href="#m008bc6a42b" x="64.048753" y="303.64" style="stroke: #000000; stroke-width: 0.8"/>
      </g>
     </g>
     <g id="text_1">
      <!-- 0 -->
      <g transform="translate(60.867503 318.238437) scale(0.1 -0.1)">
       <defs>
        <path id="DejaVuSans-30" d="M 2034 4250 
Q 1547 4250 1301 3770 
Q 1056 3291 1056 2328 
Q 1056 1369 1301 889 
Q 1547 409 2034 409 
Q 2525 409 2770 889 
Q 3016 1369 3016 2328 
Q 3016 3291 2770 3770 
Q 2525 4250 2034 4250 
z
M 2034 4750 
Q 2819 4750 3233 4129 
Q 3647 3509 3647 2328 
Q 3647 1150 3233 529 
Q 2819 -91 2034 -91 
Q 1250 -91 836 529 
Q 422 1150 422 2328 
Q 422 3509 836 4129 
Q 1250 4750 2034 4750 
z
" transform="scale(0.015625)"/>
       </defs>
       <use xlink:href="#DejaVuSans-30"/>
      </g>
     </g>
    </g>
    <g id="xtick_2">
     <g id="line2d_2">
      <g>
       <use xlink:href="#m008bc6a42b" x="115.114015" y="303.64" style="stroke: #000000; stroke-width: 0.8"/>
      </g>
     </g>
     <g id="text_2">
      <!-- 25 -->
      <g transform="translate(108.751515 318.238437) scale(0.1 -0.1)">
       <defs>
        <path id="DejaVuSans-32" d="M 1228 531 
L 3431 531 
L 3431 0 
L 469 0 
L 469 531 
Q 828 903 1448 1529 
Q 2069 2156 2228 2338 
Q 2531 2678 2651 2914 
Q 2772 3150 2772 3378 
Q 2772 3750 2511 3984 
Q 2250 4219 1831 4219 
Q 1534 4219 1204 4116 
Q 875 4013 500 3803 
L 500 4441 
Q 881 4594 1212 4672 
Q 1544 4750 1819 4750 
Q 2544 4750 2975 4387 
Q 3406 4025 3406 3419 
Q 3406 3131 3298 2873 
Q 3191 2616 2906 2266 
Q 2828 2175 2409 1742 
Q 1991 1309 1228 531 
z
" transform="scale(0.015625)"/>
        <path id="DejaVuSans-35" d="M 691 4666 
L 3169 4666 
L 3169 4134 
L 1269 4134 
L 1269 2991 
Q 1406 3038 1543 3061 
Q 1681 3084 1819 3084 
Q 2600 3084 3056 2656 
Q 3513 2228 3513 1497 
Q 3513 744 3044 326 
Q 2575 -91 1722 -91 
Q 1428 -91 1123 -41 
Q 819 9 494 109 
L 494 744 
Q 775 591 1075 516 
Q 1375 441 1709 441 
Q 2250 441 2565 725 
Q 2881 1009 2881 1497 
Q 2881 1984 2565 2268 
Q 2250 2553 1709 2553 
Q 1456 2553 1204 2497 
Q 953 2441 691 2322 
L 691 4666 
z
" transform="scale(0.015625)"/>
       </defs>
       <use xlink:href="#DejaVuSans-32"/>
       <use xlink:href="#DejaVuSans-35" transform="translate(63.623047 0)"/>
      </g>
     </g>
    </g>
    <g id="xtick_3">
     <g id="line2d_3">
      <g>
       <use xlink:href="#m008bc6a42b" x="166.179276" y="303.64" style="stroke: #000000; stroke-width: 0.8"/>
      </g>
     </g>
     <g id="text_3">
      <!-- 50 -->
      <g transform="translate(159.816776 318.238437) scale(0.1 -0.1)">
       <use xlink:href="#DejaVuSans-35"/>
       <use xlink:href="#DejaVuSans-30" transform="translate(63.623047 0)"/>
      </g>
     </g>
    </g>
    <g id="xtick_4">
     <g id="line2d_4">
      <g>
       <use xlink:href="#m008bc6a42b" x="217.244538" y="303.64" style="stroke: #000000; stroke-width: 0.8"/>
      </g>
     </g>
     <g id="text_4">
      <!-- 75 -->
      <g transform="translate(210.882038 318.238437) scale(0.1 -0.1)">
       <defs>
        <path id="DejaVuSans-37" d="M 525 4666 
L 3525 4666 
L 3525 4397 
L 1831 0 
L 1172 0 
L 2766 4134 
L 525 4134 
L 525 4666 
z
" transform="scale(0.015625)"/>
       </defs>
       <use xlink:href="#DejaVuSans-37"/>
       <use xlink:href="#DejaVuSans-35" transform="translate(63.623047 0)"/>
      </g>
     </g>
    </g>
    <g id="xtick_5">
     <g id="line2d_5">
      <g>
       <use xlink:href="#m008bc6a42b" x="268.309799" y="303.64" style="stroke: #000000; stroke-width: 0.8"/>
      </g>
     </g>
     <g id="text_5">
      <!-- 100 -->
      <g transform="translate(258.766049 318.238437) scale(0.1 -0.1)">
       <defs>
        <path id="DejaVuSans-31" d="M 794 531 
L 1825 531 
L 1825 4091 
L 703 3866 
L 703 4441 
L 1819 4666 
L 2450 4666 
L 2450 531 
L 3481 531 
L 3481 0 
L 794 0 
L 794 531 
z
" transform="scale(0.015625)"/>
       </defs>
       <use xlink:href="#DejaVuSans-31"/>
       <use xlink:href="#DejaVuSans-30" transform="translate(63.623047 0)"/>
       <use xlink:href="#DejaVuSans-30" transform="translate(127.246094 0)"/>
      </g>
     </g>
    </g>
    <g id="xtick_6">
     <g id="line2d_6">
      <g>
       <use xlink:href="#m008bc6a42b" x="319.375061" y="303.64" style="stroke: #000000; stroke-width: 0.8"/>
      </g>
     </g>
     <g id="text_6">
      <!-- 125 -->
      <g transform="translate(309.831311 318.238437) scale(0.1 -0.1)">
       <use xlink:href="#DejaVuSans-31"/>
       <use xlink:href="#DejaVuSans-32" transform="translate(63.623047 0)"/>
       <use xlink:href="#DejaVuSans-35" transform="translate(127.246094 0)"/>
      </g>
     </g>
    </g>
    <g id="xtick_7">
     <g id="line2d_7">
      <g>
       <use xlink:href="#m008bc6a42b" x="370.440322" y="303.64" style="stroke: #000000; stroke-width: 0.8"/>
      </g>
     </g>
     <g id="text_7">
      <!-- 150 -->
      <g transform="translate(360.896572 318.238437) scale(0.1 -0.1)">
       <use xlink:href="#DejaVuSans-31"/>
       <use xlink:href="#DejaVuSans-35" transform="translate(63.623047 0)"/>
       <use xlink:href="#DejaVuSans-30" transform="translate(127.246094 0)"/>
      </g>
     </g>
    </g>
    <g id="xtick_8">
     <g id="line2d_8">
      <g>
       <use xlink:href="#m008bc6a42b" x="421.505584" y="303.64" style="stroke: #000000; stroke-width: 0.8"/>
      </g>
     </g>
     <g id="text_8">
      <!-- 175 -->
      <g transform="translate(411.961834 318.238437) scale(0.1 -0.1)">
       <use xlink:href="#DejaVuSans-31"/>
       <use xlink:href="#DejaVuSans-37" transform="translate(63.623047 0)"/>
       <use xlink:href="#DejaVuSans-35" transform="translate(127.246094 0)"/>
      </g>
     </g>
    </g>
    <g id="text_9">
     <!-- Iteration -->
     <g transform="translate(227.696406 331.916562) scale(0.1 -0.1)">
      <defs>
       <path id="DejaVuSans-49" d="M 628 4666 
L 1259 4666 
L 1259 0 
L 628 0 
L 628 4666 
z
" transform="scale(0.015625)"/>
       <path id="DejaVuSans-74" d="M 1172 4494 
L 1172 3500 
L 2356 3500 
L 2356 3053 
L 1172 3053 
L 1172 1153 
Q 1172 725 1289 603 
Q 1406 481 1766 481 
L 2356 481 
L 2356 0 
L 1766 0 
Q 1100 0 847 248 
Q 594 497 594 1153 
L 594 3053 
L 172 3053 
L 172 3500 
L 594 3500 
L 594 4494 
L 1172 4494 
z
" transform="scale(0.015625)"/>
       <path id="DejaVuSans-65" d="M 3597 1894 
L 3597 1613 
L 953 1613 
Q 991 1019 1311 708 
Q 1631 397 2203 397 
Q 2534 397 2845 478 
Q 3156 559 3463 722 
L 3463 178 
Q 3153 47 2828 -22 
Q 2503 -91 2169 -91 
Q 1331 -91 842 396 
Q 353 884 353 1716 
Q 353 2575 817 3079 
Q 1281 3584 2069 3584 
Q 2775 3584 3186 3129 
Q 3597 2675 3597 1894 
z
M 3022 2063 
Q 3016 2534 2758 2815 
Q 2500 3097 2075 3097 
Q 1594 3097 1305 2825 
Q 1016 2553 972 2059 
L 3022 2063 
z
" transform="scale(0.015625)"/>
       <path id="DejaVuSans-72" d="M 2631 2963 
Q 2534 3019 2420 3045 
Q 2306 3072 2169 3072 
Q 1681 3072 1420 2755 
Q 1159 2438 1159 1844 
L 1159 0 
L 581 0 
L 581 3500 
L 1159 3500 
L 1159 2956 
Q 1341 3275 1631 3429 
Q 1922 3584 2338 3584 
Q 2397 3584 2469 3576 
Q 2541 3569 2628 3553 
L 2631 2963 
z
" transform="scale(0.015625)"/>
       <path id="DejaVuSans-61" d="M 2194 1759 
Q 1497 1759 1228 1600 
Q 959 1441 959 1056 
Q 959 750 1161 570 
Q 1363 391 1709 391 
Q 2188 391 2477 730 
Q 2766 1069 2766 1631 
L 2766 1759 
L 2194 1759 
z
M 3341 1997 
L 3341 0 
L 2766 0 
L 2766 531 
Q 2569 213 2275 61 
Q 1981 -91 1556 -91 
Q 1019 -91 701 211 
Q 384 513 384 1019 
Q 384 1609 779 1909 
Q 1175 2209 1959 2209 
L 2766 2209 
L 2766 2266 
Q 2766 2663 2505 2880 
Q 2244 3097 1772 3097 
Q 1472 3097 1187 3025 
Q 903 2953 641 2809 
L 641 3341 
Q 956 3463 1253 3523 
Q 1550 3584 1831 3584 
Q 2591 3584 2966 3190 
Q 3341 2797 3341 1997 
z
" transform="scale(0.015625)"/>
       <path id="DejaVuSans-69" d="M 603 3500 
L 1178 3500 
L 1178 0 
L 603 0 
L 603 3500 
z
M 603 4863 
L 1178 4863 
L 1178 4134 
L 603 4134 
L 603 4863 
z
" transform="scale(0.015625)"/>
       <path id="DejaVuSans-6f" d="M 1959 3097 
Q 1497 3097 1228 2736 
Q 959 2375 959 1747 
Q 959 1119 1226 758 
Q 1494 397 1959 397 
Q 2419 397 2687 759 
Q 2956 1122 2956 1747 
Q 2956 2369 2687 2733 
Q 2419 3097 1959 3097 
z
M 1959 3584 
Q 2709 3584 3137 3096 
Q 3566 2609 3566 1747 
Q 3566 888 3137 398 
Q 2709 -91 1959 -91 
Q 1206 -91 779 398 
Q 353 888 353 1747 
Q 353 2609 779 3096 
Q 1206 3584 1959 3584 
z
" transform="scale(0.015625)"/>
       <path id="DejaVuSans-6e" d="M 3513 2113 
L 3513 0 
L 2938 0 
L 2938 2094 
Q 2938 2591 2744 2837 
Q 2550 3084 2163 3084 
Q 1697 3084 1428 2787 
Q 1159 2491 1159 1978 
L 1159 0 
L 581 0 
L 581 3500 
L 1159 3500 
L 1159 2956 
Q 1366 3272 1645 3428 
Q 1925 3584 2291 3584 
Q 2894 3584 3203 3211 
Q 3513 2838 3513 2113 
z
" transform="scale(0.015625)"/>
      </defs>
      <use xlink:href="#DejaVuSans-49"/>
      <use xlink:href="#DejaVuSans-74" transform="translate(29.492188 0)"/>
      <use xlink:href="#DejaVuSans-65" transform="translate(68.701172 0)"/>
      <use xlink:href="#DejaVuSans-72" transform="translate(130.224609 0)"/>
      <use xlink:href="#DejaVuSans-61" transform="translate(171.337891 0)"/>
      <use xlink:href="#DejaVuSans-74" transform="translate(232.617188 0)"/>
      <use xlink:href="#DejaVuSans-69" transform="translate(271.826172 0)"/>
      <use xlink:href="#DejaVuSans-6f" transform="translate(299.609375 0)"/>
      <use xlink:href="#DejaVuSans-6e" transform="translate(360.791016 0)"/>
     </g>
    </g>
   </g>
   <g id="matplotlib.axis_2">
    <g id="ytick_1">
     <g id="line2d_9">
      <defs>
       <path id="m44ba145717" d="M 0 0 
L -3.5 0 
" style="stroke: #000000; stroke-width: 0.8"/>
      </defs>
      <g>
       <use xlink:href="#m44ba145717" x="47.81" y="290.329091" style="stroke: #000000; stroke-width: 0.8"/>
      </g>
     </g>
     <g id="text_10">
      <!-- 0.0 -->
      <g transform="translate(24.906875 294.12831) scale(0.1 -0.1)">
       <defs>
        <path id="DejaVuSans-2e" d="M 684 794 
L 1344 794 
L 1344 0 
L 684 0 
L 684 794 
z
" transform="scale(0.015625)"/>
       </defs>
       <use xlink:href="#DejaVuSans-30"/>
       <use xlink:href="#DejaVuSans-2e" transform="translate(63.623047 0)"/>
       <use xlink:href="#DejaVuSans-30" transform="translate(95.410156 0)"/>
      </g>
     </g>
    </g>
    <g id="ytick_2">
     <g id="line2d_10">
      <g>
       <use xlink:href="#m44ba145717" x="47.81" y="252.41886" style="stroke: #000000; stroke-width: 0.8"/>
      </g>
     </g>
     <g id="text_11">
      <!-- 0.5 -->
      <g transform="translate(24.906875 256.218079) scale(0.1 -0.1)">
       <use xlink:href="#DejaVuSans-30"/>
       <use xlink:href="#DejaVuSans-2e" transform="translate(63.623047 0)"/>
       <use xlink:href="#DejaVuSans-35" transform="translate(95.410156 0)"/>
      </g>
     </g>
    </g>
    <g id="ytick_3">
     <g id="line2d_11">
      <g>
       <use xlink:href="#m44ba145717" x="47.81" y="214.508629" style="stroke: #000000; stroke-width: 0.8"/>
      </g>
     </g>
     <g id="text_12">
      <!-- 1.0 -->
      <g transform="translate(24.906875 218.307848) scale(0.1 -0.1)">
       <use xlink:href="#DejaVuSans-31"/>
       <use xlink:href="#DejaVuSans-2e" transform="translate(63.623047 0)"/>
       <use xlink:href="#DejaVuSans-30" transform="translate(95.410156 0)"/>
      </g>
     </g>
    </g>
    <g id="ytick_4">
     <g id="line2d_12">
      <g>
       <use xlink:href="#m44ba145717" x="47.81" y="176.598399" style="stroke: #000000; stroke-width: 0.8"/>
      </g>
     </g>
     <g id="text_13">
      <!-- 1.5 -->
      <g transform="translate(24.906875 180.397617) scale(0.1 -0.1)">
       <use xlink:href="#DejaVuSans-31"/>
       <use xlink:href="#DejaVuSans-2e" transform="translate(63.623047 0)"/>
       <use xlink:href="#DejaVuSans-35" transform="translate(95.410156 0)"/>
      </g>
     </g>
    </g>
    <g id="ytick_5">
     <g id="line2d_13">
      <g>
       <use xlink:href="#m44ba145717" x="47.81" y="138.688168" style="stroke: #000000; stroke-width: 0.8"/>
      </g>
     </g>
     <g id="text_14">
      <!-- 2.0 -->
      <g transform="translate(24.906875 142.487386) scale(0.1 -0.1)">
       <use xlink:href="#DejaVuSans-32"/>
       <use xlink:href="#DejaVuSans-2e" transform="translate(63.623047 0)"/>
       <use xlink:href="#DejaVuSans-30" transform="translate(95.410156 0)"/>
      </g>
     </g>
    </g>
    <g id="ytick_6">
     <g id="line2d_14">
      <g>
       <use xlink:href="#m44ba145717" x="47.81" y="100.777937" style="stroke: #000000; stroke-width: 0.8"/>
      </g>
     </g>
     <g id="text_15">
      <!-- 2.5 -->
      <g transform="translate(24.906875 104.577156) scale(0.1 -0.1)">
       <use xlink:href="#DejaVuSans-32"/>
       <use xlink:href="#DejaVuSans-2e" transform="translate(63.623047 0)"/>
       <use xlink:href="#DejaVuSans-35" transform="translate(95.410156 0)"/>
      </g>
     </g>
    </g>
    <g id="ytick_7">
     <g id="line2d_15">
      <g>
       <use xlink:href="#m44ba145717" x="47.81" y="62.867706" style="stroke: #000000; stroke-width: 0.8"/>
      </g>
     </g>
     <g id="text_16">
      <!-- 3.0 -->
      <g transform="translate(24.906875 66.666925) scale(0.1 -0.1)">
       <defs>
        <path id="DejaVuSans-33" d="M 2597 2516 
Q 3050 2419 3304 2112 
Q 3559 1806 3559 1356 
Q 3559 666 3084 287 
Q 2609 -91 1734 -91 
Q 1441 -91 1130 -33 
Q 819 25 488 141 
L 488 750 
Q 750 597 1062 519 
Q 1375 441 1716 441 
Q 2309 441 2620 675 
Q 2931 909 2931 1356 
Q 2931 1769 2642 2001 
Q 2353 2234 1838 2234 
L 1294 2234 
L 1294 2753 
L 1863 2753 
Q 2328 2753 2575 2939 
Q 2822 3125 2822 3475 
Q 2822 3834 2567 4026 
Q 2313 4219 1838 4219 
Q 1578 4219 1281 4162 
Q 984 4106 628 3988 
L 628 4550 
Q 988 4650 1302 4700 
Q 1616 4750 1894 4750 
Q 2613 4750 3031 4423 
Q 3450 4097 3450 3541 
Q 3450 3153 3228 2886 
Q 3006 2619 2597 2516 
z
" transform="scale(0.015625)"/>
       </defs>
       <use xlink:href="#DejaVuSans-33"/>
       <use xlink:href="#DejaVuSans-2e" transform="translate(63.623047 0)"/>
       <use xlink:href="#DejaVuSans-30" transform="translate(95.410156 0)"/>
      </g>
     </g>
    </g>
    <g id="ytick_8">
     <g id="line2d_16">
      <g>
       <use xlink:href="#m44ba145717" x="47.81" y="24.957475" style="stroke: #000000; stroke-width: 0.8"/>
      </g>
     </g>
     <g id="text_17">
      <!-- 3.5 -->
      <g transform="translate(24.906875 28.756694) scale(0.1 -0.1)">
       <use xlink:href="#DejaVuSans-33"/>
       <use xlink:href="#DejaVuSans-2e" transform="translate(63.623047 0)"/>
       <use xlink:href="#DejaVuSans-35" transform="translate(95.410156 0)"/>
      </g>
     </g>
    </g>
    <g id="text_18">
     <!-- Loss -->
     <g transform="translate(18.827188 168.187187) rotate(-90) scale(0.1 -0.1)">
      <defs>
       <path id="DejaVuSans-4c" d="M 628 4666 
L 1259 4666 
L 1259 531 
L 3531 531 
L 3531 0 
L 628 0 
L 628 4666 
z
" transform="scale(0.015625)"/>
       <path id="DejaVuSans-73" d="M 2834 3397 
L 2834 2853 
Q 2591 2978 2328 3040 
Q 2066 3103 1784 3103 
Q 1356 3103 1142 2972 
Q 928 2841 928 2578 
Q 928 2378 1081 2264 
Q 1234 2150 1697 2047 
L 1894 2003 
Q 2506 1872 2764 1633 
Q 3022 1394 3022 966 
Q 3022 478 2636 193 
Q 2250 -91 1575 -91 
Q 1294 -91 989 -36 
Q 684 19 347 128 
L 347 722 
Q 666 556 975 473 
Q 1284 391 1588 391 
Q 1994 391 2212 530 
Q 2431 669 2431 922 
Q 2431 1156 2273 1281 
Q 2116 1406 1581 1522 
L 1381 1569 
Q 847 1681 609 1914 
Q 372 2147 372 2553 
Q 372 3047 722 3315 
Q 1072 3584 1716 3584 
Q 2034 3584 2315 3537 
Q 2597 3491 2834 3397 
z
" transform="scale(0.015625)"/>
      </defs>
      <use xlink:href="#DejaVuSans-4c"/>
      <use xlink:href="#DejaVuSans-6f" transform="translate(53.962891 0)"/>
      <use xlink:href="#DejaVuSans-73" transform="translate(115.144531 0)"/>
      <use xlink:href="#DejaVuSans-73" transform="translate(167.244141 0)"/>
     </g>
    </g>
   </g>
   <g id="line2d_17">
    <path d="M 66.091364 24.110909 
L 68.133974 74.165078 
L 72.219195 92.09583 
L 74.261805 94.036586 
L 76.304416 94.977447 
L 78.347026 99.403776 
L 80.389637 104.853635 
L 82.432247 106.096468 
L 84.474858 103.513553 
L 86.517468 106.238717 
L 88.560079 105.625516 
L 90.602689 111.15235 
L 92.6453 109.267262 
L 94.68791 109.163258 
L 96.730521 111.277617 
L 98.773131 111.80888 
L 100.815741 110.881362 
L 102.858352 110.726196 
L 104.900962 115.282627 
L 106.943573 113.613031 
L 108.986183 110.529439 
L 111.028794 113.494976 
L 113.071404 116.117894 
L 115.114015 115.568754 
L 117.156625 114.310011 
L 119.199236 116.268422 
L 121.241846 114.400076 
L 123.284457 113.081457 
L 125.327067 116.170754 
L 127.369678 114.14787 
L 129.412288 111.523724 
L 131.454898 115.314427 
L 133.497509 115.209906 
L 135.540119 116.888273 
L 137.58273 114.089957 
L 139.62534 113.997905 
L 141.667951 114.587214 
L 143.710561 112.787267 
L 145.753172 115.174577 
L 147.795782 114.36993 
L 149.838393 115.55385 
L 151.881003 117.761251 
L 153.923614 115.305416 
L 155.966224 116.034066 
L 158.008834 115.154641 
L 160.051445 114.966989 
L 162.094055 114.560917 
L 164.136666 115.342591 
L 166.179276 114.389987 
L 168.221887 116.465042 
L 170.264497 112.199783 
L 172.307108 116.455465 
L 174.349718 116.15079 
L 176.392329 115.197186 
L 178.434939 112.38602 
L 180.47755 118.494654 
L 182.52016 117.437867 
L 184.56277 115.741458 
L 188.647991 118.067659 
L 190.690602 119.980621 
L 192.733212 120.570157 
L 194.775823 122.400404 
L 196.818433 121.439433 
L 198.861044 121.725622 
L 200.903654 123.017171 
L 202.946265 122.419812 
L 204.988875 120.221008 
L 207.031486 120.195801 
L 209.074096 123.324701 
L 211.116706 122.349679 
L 213.159317 121.095433 
L 215.201927 122.528929 
L 217.244538 121.971298 
L 219.287148 120.557594 
L 221.329759 120.066915 
L 223.372369 122.375155 
L 225.41498 122.632208 
L 227.45759 124.129489 
L 229.500201 125.986554 
L 231.542811 123.802967 
L 233.585422 120.993092 
L 235.628032 124.288884 
L 237.670642 123.569646 
L 239.713253 125.042339 
L 241.755863 121.866164 
L 243.798474 121.416692 
L 245.841084 123.680791 
L 247.883695 124.631131 
L 249.926305 122.833522 
L 251.968916 122.995538 
L 254.011526 121.61722 
L 256.054137 121.734273 
L 258.096747 123.707748 
L 260.139358 125.191585 
L 262.181968 124.148948 
L 264.224578 120.953309 
L 266.267189 123.757434 
L 268.309799 121.292674 
L 270.35241 124.555511 
L 272.39502 125.509212 
L 274.437631 125.273314 
L 276.480241 124.850316 
L 278.522852 123.806617 
L 280.565462 123.105258 
L 284.650683 125.592219 
L 286.693294 123.187455 
L 288.735904 122.419363 
L 290.778514 122.26673 
L 292.821125 121.128601 
L 294.863735 123.469641 
L 296.906346 121.548721 
L 298.948956 126.341071 
L 300.991567 123.009143 
L 303.034177 126.430062 
L 305.076788 125.371359 
L 307.119398 123.610494 
L 309.162009 120.827886 
L 311.204619 120.97186 
L 313.24723 122.425998 
L 315.28984 124.343329 
L 317.33245 125.651698 
L 319.375061 125.053184 
L 321.417671 125.483492 
L 323.460282 126.919075 
L 325.502892 126.842001 
L 327.545503 123.205554 
L 329.588113 126.284917 
L 331.630724 125.951916 
L 333.673334 124.874729 
L 335.715945 126.704542 
L 337.758555 126.446771 
L 339.801166 127.928463 
L 341.843776 125.367159 
L 343.886386 126.450574 
L 345.928997 127.980642 
L 347.971607 127.184165 
L 350.014218 125.430422 
L 352.056828 127.14212 
L 354.099439 126.238336 
L 356.142049 125.120099 
L 358.18466 124.671971 
L 360.22727 129.037988 
L 362.269881 126.353992 
L 364.312491 125.497367 
L 366.355102 127.176816 
L 368.397712 125.726866 
L 370.440322 126.525921 
L 372.482933 126.658262 
L 374.525543 127.037285 
L 376.568154 127.627967 
L 378.610764 128.668424 
L 380.653375 124.401481 
L 382.695985 126.933442 
L 384.738596 125.941415 
L 386.781206 126.250172 
L 388.823817 125.756373 
L 390.866427 124.930238 
L 392.909038 127.605112 
L 394.951648 128.434855 
L 396.994259 127.721973 
L 399.036869 128.971692 
L 401.079479 126.33461 
L 403.12209 126.933875 
L 405.1647 126.464978 
L 407.207311 128.091506 
L 409.249921 126.672907 
L 411.292532 126.658371 
L 413.335142 126.217756 
L 415.377753 128.396 
L 417.420363 125.092732 
L 419.462974 128.122103 
L 421.505584 128.43628 
L 423.548195 127.874173 
L 427.633415 127.919133 
L 429.676026 126.346112 
L 431.718636 127.102454 
L 431.718636 127.102454 
" clip-path="url(#p3683f11bae)" style="fill: none; stroke: #000000; stroke-width: 1.5; stroke-linecap: square"/>
   </g>
   <g id="patch_3">
    <path d="M 47.81 303.64 
L 47.81 10.8 
" style="fill: none; stroke: #000000; stroke-width: 0.8; stroke-linejoin: miter; stroke-linecap: square"/>
   </g>
   <g id="patch_4">
    <path d="M 450 303.64 
L 450 10.8 
" style="fill: none; stroke: #000000; stroke-width: 0.8; stroke-linejoin: miter; stroke-linecap: square"/>
   </g>
   <g id="patch_5">
    <path d="M 47.81 303.64 
L 450 303.64 
" style="fill: none; stroke: #000000; stroke-width: 0.8; stroke-linejoin: miter; stroke-linecap: square"/>
   </g>
   <g id="patch_6">
    <path d="M 47.81 10.8 
L 450 10.8 
" style="fill: none; stroke: #000000; stroke-width: 0.8; stroke-linejoin: miter; stroke-linecap: square"/>
   </g>
   <g id="legend_1">
    <g id="patch_7">
     <path d="M 359.746875 77.5125 
L 443 77.5125 
Q 445 77.5125 445 75.5125 
L 445 17.8 
Q 445 15.8 443 15.8 
L 359.746875 15.8 
Q 357.746875 15.8 357.746875 17.8 
L 357.746875 75.5125 
Q 357.746875 77.5125 359.746875 77.5125 
z
" style="fill: #ffffff; opacity: 0.8; stroke: #cccccc; stroke-linejoin: miter"/>
    </g>
    <g id="line2d_18">
     <path d="M 361.746875 23.898438 
L 371.746875 23.898438 
L 381.746875 23.898438 
" style="fill: none; stroke: #000000; stroke-width: 1.5; stroke-linecap: square"/>
    </g>
    <g id="text_19">
     <!-- Total loss -->
     <g transform="translate(389.746875 27.398438) scale(0.1 -0.1)">
      <defs>
       <path id="DejaVuSans-54" d="M -19 4666 
L 3928 4666 
L 3928 4134 
L 2272 4134 
L 2272 0 
L 1638 0 
L 1638 4134 
L -19 4134 
L -19 4666 
z
" transform="scale(0.015625)"/>
       <path id="DejaVuSans-6c" d="M 603 4863 
L 1178 4863 
L 1178 0 
L 603 0 
L 603 4863 
z
" transform="scale(0.015625)"/>
       <path id="DejaVuSans-20" transform="scale(0.015625)"/>
      </defs>
      <use xlink:href="#DejaVuSans-54"/>
      <use xlink:href="#DejaVuSans-6f" transform="translate(44.083984 0)"/>
      <use xlink:href="#DejaVuSans-74" transform="translate(105.265625 0)"/>
      <use xlink:href="#DejaVuSans-61" transform="translate(144.474609 0)"/>
      <use xlink:href="#DejaVuSans-6c" transform="translate(205.753906 0)"/>
      <use xlink:href="#DejaVuSans-20" transform="translate(233.537109 0)"/>
      <use xlink:href="#DejaVuSans-6c" transform="translate(265.324219 0)"/>
      <use xlink:href="#DejaVuSans-6f" transform="translate(293.107422 0)"/>
      <use xlink:href="#DejaVuSans-73" transform="translate(354.289062 0)"/>
      <use xlink:href="#DejaVuSans-73" transform="translate(406.388672 0)"/>
     </g>
    </g>
    <g id="patch_8">
     <path d="M 361.746875 42.076563 
L 381.746875 42.076563 
L 381.746875 35.076563 
L 361.746875 35.076563 
z
" style="fill: #1f77b4; fill-opacity: 0.5"/>
    </g>
    <g id="text_20">
     <!-- Policy loss -->
     <g transform="translate(389.746875 42.076563) scale(0.1 -0.1)">
      <defs>
       <path id="DejaVuSans-50" d="M 1259 4147 
L 1259 2394 
L 2053 2394 
Q 2494 2394 2734 2622 
Q 2975 2850 2975 3272 
Q 2975 3691 2734 3919 
Q 2494 4147 2053 4147 
L 1259 4147 
z
M 628 4666 
L 2053 4666 
Q 2838 4666 3239 4311 
Q 3641 3956 3641 3272 
Q 3641 2581 3239 2228 
Q 2838 1875 2053 1875 
L 1259 1875 
L 1259 0 
L 628 0 
L 628 4666 
z
" transform="scale(0.015625)"/>
       <path id="DejaVuSans-63" d="M 3122 3366 
L 3122 2828 
Q 2878 2963 2633 3030 
Q 2388 3097 2138 3097 
Q 1578 3097 1268 2742 
Q 959 2388 959 1747 
Q 959 1106 1268 751 
Q 1578 397 2138 397 
Q 2388 397 2633 464 
Q 2878 531 3122 666 
L 3122 134 
Q 2881 22 2623 -34 
Q 2366 -91 2075 -91 
Q 1284 -91 818 406 
Q 353 903 353 1747 
Q 353 2603 823 3093 
Q 1294 3584 2113 3584 
Q 2378 3584 2631 3529 
Q 2884 3475 3122 3366 
z
" transform="scale(0.015625)"/>
       <path id="DejaVuSans-79" d="M 2059 -325 
Q 1816 -950 1584 -1140 
Q 1353 -1331 966 -1331 
L 506 -1331 
L 506 -850 
L 844 -850 
Q 1081 -850 1212 -737 
Q 1344 -625 1503 -206 
L 1606 56 
L 191 3500 
L 800 3500 
L 1894 763 
L 2988 3500 
L 3597 3500 
L 2059 -325 
z
" transform="scale(0.015625)"/>
      </defs>
      <use xlink:href="#DejaVuSans-50"/>
      <use xlink:href="#DejaVuSans-6f" transform="translate(56.677734 0)"/>
      <use xlink:href="#DejaVuSans-6c" transform="translate(117.859375 0)"/>
      <use xlink:href="#DejaVuSans-69" transform="translate(145.642578 0)"/>
      <use xlink:href="#DejaVuSans-63" transform="translate(173.425781 0)"/>
      <use xlink:href="#DejaVuSans-79" transform="translate(228.40625 0)"/>
      <use xlink:href="#DejaVuSans-20" transform="translate(287.585938 0)"/>
      <use xlink:href="#DejaVuSans-6c" transform="translate(319.373047 0)"/>
      <use xlink:href="#DejaVuSans-6f" transform="translate(347.15625 0)"/>
      <use xlink:href="#DejaVuSans-73" transform="translate(408.337891 0)"/>
      <use xlink:href="#DejaVuSans-73" transform="translate(460.4375 0)"/>
     </g>
    </g>
    <g id="patch_9">
     <path d="M 361.746875 56.754688 
L 381.746875 56.754688 
L 381.746875 49.754688 
L 361.746875 49.754688 
z
" style="fill: #ff7f0e; fill-opacity: 0.5"/>
    </g>
    <g id="text_21">
     <!-- Value loss -->
     <g transform="translate(389.746875 56.754688) scale(0.1 -0.1)">
      <defs>
       <path id="DejaVuSans-56" d="M 1831 0 
L 50 4666 
L 709 4666 
L 2188 738 
L 3669 4666 
L 4325 4666 
L 2547 0 
L 1831 0 
z
" transform="scale(0.015625)"/>
       <path id="DejaVuSans-75" d="M 544 1381 
L 544 3500 
L 1119 3500 
L 1119 1403 
Q 1119 906 1312 657 
Q 1506 409 1894 409 
Q 2359 409 2629 706 
Q 2900 1003 2900 1516 
L 2900 3500 
L 3475 3500 
L 3475 0 
L 2900 0 
L 2900 538 
Q 2691 219 2414 64 
Q 2138 -91 1772 -91 
Q 1169 -91 856 284 
Q 544 659 544 1381 
z
M 1991 3584 
L 1991 3584 
z
" transform="scale(0.015625)"/>
      </defs>
      <use xlink:href="#DejaVuSans-56"/>
      <use xlink:href="#DejaVuSans-61" transform="translate(60.658203 0)"/>
      <use xlink:href="#DejaVuSans-6c" transform="translate(121.9375 0)"/>
      <use xlink:href="#DejaVuSans-75" transform="translate(149.720703 0)"/>
      <use xlink:href="#DejaVuSans-65" transform="translate(213.099609 0)"/>
      <use xlink:href="#DejaVuSans-20" transform="translate(274.623047 0)"/>
      <use xlink:href="#DejaVuSans-6c" transform="translate(306.410156 0)"/>
      <use xlink:href="#DejaVuSans-6f" transform="translate(334.193359 0)"/>
      <use xlink:href="#DejaVuSans-73" transform="translate(395.375 0)"/>
      <use xlink:href="#DejaVuSans-73" transform="translate(447.474609 0)"/>
     </g>
    </g>
    <g id="patch_10">
     <path d="M 361.746875 71.432813 
L 381.746875 71.432813 
L 381.746875 64.432813 
L 361.746875 64.432813 
z
" style="fill: #2ca02c; fill-opacity: 0.5"/>
    </g>
    <g id="text_22">
     <!-- L2 loss -->
     <g transform="translate(389.746875 71.432813) scale(0.1 -0.1)">
      <use xlink:href="#DejaVuSans-4c"/>
      <use xlink:href="#DejaVuSans-32" transform="translate(55.712891 0)"/>
      <use xlink:href="#DejaVuSans-20" transform="translate(119.335938 0)"/>
      <use xlink:href="#DejaVuSans-6c" transform="translate(151.123047 0)"/>
      <use xlink:href="#DejaVuSans-6f" transform="translate(178.90625 0)"/>
      <use xlink:href="#DejaVuSans-73" transform="translate(240.087891 0)"/>
      <use xlink:href="#DejaVuSans-73" transform="translate(292.1875 0)"/>
     </g>
    </g>
   </g>
  </g>
 </g>
 <defs>
  <clipPath id="p3683f11bae">
   <rect x="47.81" y="10.8" width="402.19" height="292.84"/>
  </clipPath>
 </defs>
</svg>
