<?xml version="1.0" encoding="utf-8" standalone="no"?>
<!DOCTYPE svg PUBLIC "-//W3C//DTD SVG 1.1//EN"
  "http://www.w3.org/Graphics/SVG/1.1/DTD/svg11.dtd">
<svg xmlns:xlink="http://www.w3.org/1999/xlink" width="460.8pt" height="345.6pt" viewBox="0 0 460.8 345.6" xmlns="http://www.w3.org/2000/svg" version="1.1">
 <metadata>
  <rdf:RDF xmlns:dc="http://purl.org/dc/elements/1.1/" xmlns:cc="http://creativecommons.org/ns#" xmlns:rdf="http://www.w3.org/1999/02/22-rdf-syntax-ns#">
   <cc:Work>
    <dc:type rdf:resource="http://purl.org/dc/dcmitype/StillImage"/>
    <dc:date>2025-01-24T02:07:43.467394</dc:date>
    <dc:format>image/svg+xml</dc:format>
    <dc:creator>
     <cc:Agent>
      <dc:title>Matplotlib v3.10.0, https://matplotlib.org/</dc:title>
     </cc:Agent>
    </dc:creator>
   </cc:Work>
  </rdf:RDF>
 </metadata>
 <defs>
  <style type="text/css">*{stroke-linejoin: round; stroke-linecap: butt}</style>
 </defs>
 <g id="figure_1">
  <g id="patch_1">
   <path d="M 0 345.6 
L 460.8 345.6 
L 460.8 0 
L 0 0 
z
" style="fill: #ffffff"/>
  </g>
  <g id="axes_1">
   <g id="patch_2">
    <path d="M 47.81 143.03 
L 225 143.03 
L 225 25.44 
L 47.81 25.44 
z
" style="fill: #ffffff"/>
   </g>
   <g id="matplotlib.axis_1">
    <g id="xtick_1">
     <g id="line2d_1">
      <defs>
       <path id="ma0b9f7b40a" d="M 0 0 
L 0 3.5 
" style="stroke: #000000; stroke-width: 0.8"/>
      </defs>
      <g>
       <use xlink:href="#ma0b9f7b40a" x="54.964192" y="143.03" style="stroke: #000000; stroke-width: 0.8"/>
      </g>
     </g>
    </g>
    <g id="xtick_2">
     <g id="line2d_2">
      <g>
       <use xlink:href="#ma0b9f7b40a" x="99.959114" y="143.03" style="stroke: #000000; stroke-width: 0.8"/>
      </g>
     </g>
    </g>
    <g id="xtick_3">
     <g id="line2d_3">
      <g>
       <use xlink:href="#ma0b9f7b40a" x="144.954035" y="143.03" style="stroke: #000000; stroke-width: 0.8"/>
      </g>
     </g>
    </g>
    <g id="xtick_4">
     <g id="line2d_4">
      <g>
       <use xlink:href="#ma0b9f7b40a" x="189.948956" y="143.03" style="stroke: #000000; stroke-width: 0.8"/>
      </g>
     </g>
    </g>
    <g id="text_1">
     <!-- Iteration -->
     <g transform="translate(115.196406 158.128437) scale(0.1 -0.1)">
      <defs>
       <path id="DejaVuSans-49" d="M 628 4666 
L 1259 4666 
L 1259 0 
L 628 0 
L 628 4666 
z
" transform="scale(0.015625)"/>
       <path id="DejaVuSans-74" d="M 1172 4494 
L 1172 3500 
L 2356 3500 
L 2356 3053 
L 1172 3053 
L 1172 1153 
Q 1172 725 1289 603 
Q 1406 481 1766 481 
L 2356 481 
L 2356 0 
L 1766 0 
Q 1100 0 847 248 
Q 594 497 594 1153 
L 594 3053 
L 172 3053 
L 172 3500 
L 594 3500 
L 594 4494 
L 1172 4494 
z
" transform="scale(0.015625)"/>
       <path id="DejaVuSans-65" d="M 3597 1894 
L 3597 1613 
L 953 1613 
Q 991 1019 1311 708 
Q 1631 397 2203 397 
Q 2534 397 2845 478 
Q 3156 559 3463 722 
L 3463 178 
Q 3153 47 2828 -22 
Q 2503 -91 2169 -91 
Q 1331 -91 842 396 
Q 353 884 353 1716 
Q 353 2575 817 3079 
Q 1281 3584 2069 3584 
Q 2775 3584 3186 3129 
Q 3597 2675 3597 1894 
z
M 3022 2063 
Q 3016 2534 2758 2815 
Q 2500 3097 2075 3097 
Q 1594 3097 1305 2825 
Q 1016 2553 972 2059 
L 3022 2063 
z
" transform="scale(0.015625)"/>
       <path id="DejaVuSans-72" d="M 2631 2963 
Q 2534 3019 2420 3045 
Q 2306 3072 2169 3072 
Q 1681 3072 1420 2755 
Q 1159 2438 1159 1844 
L 1159 0 
L 581 0 
L 581 3500 
L 1159 3500 
L 1159 2956 
Q 1341 3275 1631 3429 
Q 1922 3584 2338 3584 
Q 2397 3584 2469 3576 
Q 2541 3569 2628 3553 
L 2631 2963 
z
" transform="scale(0.015625)"/>
       <path id="DejaVuSans-61" d="M 2194 1759 
Q 1497 1759 1228 1600 
Q 959 1441 959 1056 
Q 959 750 1161 570 
Q 1363 391 1709 391 
Q 2188 391 2477 730 
Q 2766 1069 2766 1631 
L 2766 1759 
L 2194 1759 
z
M 3341 1997 
L 3341 0 
L 2766 0 
L 2766 531 
Q 2569 213 2275 61 
Q 1981 -91 1556 -91 
Q 1019 -91 701 211 
Q 384 513 384 1019 
Q 384 1609 779 1909 
Q 1175 2209 1959 2209 
L 2766 2209 
L 2766 2266 
Q 2766 2663 2505 2880 
Q 2244 3097 1772 3097 
Q 1472 3097 1187 3025 
Q 903 2953 641 2809 
L 641 3341 
Q 956 3463 1253 3523 
Q 1550 3584 1831 3584 
Q 2591 3584 2966 3190 
Q 3341 2797 3341 1997 
z
" transform="scale(0.015625)"/>
       <path id="DejaVuSans-69" d="M 603 3500 
L 1178 3500 
L 1178 0 
L 603 0 
L 603 3500 
z
M 603 4863 
L 1178 4863 
L 1178 4134 
L 603 4134 
L 603 4863 
z
" transform="scale(0.015625)"/>
       <path id="DejaVuSans-6f" d="M 1959 3097 
Q 1497 3097 1228 2736 
Q 959 2375 959 1747 
Q 959 1119 1226 758 
Q 1494 397 1959 397 
Q 2419 397 2687 759 
Q 2956 1122 2956 1747 
Q 2956 2369 2687 2733 
Q 2419 3097 1959 3097 
z
M 1959 3584 
Q 2709 3584 3137 3096 
Q 3566 2609 3566 1747 
Q 3566 888 3137 398 
Q 2709 -91 1959 -91 
Q 1206 -91 779 398 
Q 353 888 353 1747 
Q 353 2609 779 3096 
Q 1206 3584 1959 3584 
z
" transform="scale(0.015625)"/>
       <path id="DejaVuSans-6e" d="M 3513 2113 
L 3513 0 
L 2938 0 
L 2938 2094 
Q 2938 2591 2744 2837 
Q 2550 3084 2163 3084 
Q 1697 3084 1428 2787 
Q 1159 2491 1159 1978 
L 1159 0 
L 581 0 
L 581 3500 
L 1159 3500 
L 1159 2956 
Q 1366 3272 1645 3428 
Q 1925 3584 2291 3584 
Q 2894 3584 3203 3211 
Q 3513 2838 3513 2113 
z
" transform="scale(0.015625)"/>
      </defs>
      <use xlink:href="#DejaVuSans-49"/>
      <use xlink:href="#DejaVuSans-74" transform="translate(29.492188 0)"/>
      <use xlink:href="#DejaVuSans-65" transform="translate(68.701172 0)"/>
      <use xlink:href="#DejaVuSans-72" transform="translate(130.224609 0)"/>
      <use xlink:href="#DejaVuSans-61" transform="translate(171.337891 0)"/>
      <use xlink:href="#DejaVuSans-74" transform="translate(232.617188 0)"/>
      <use xlink:href="#DejaVuSans-69" transform="translate(271.826172 0)"/>
      <use xlink:href="#DejaVuSans-6f" transform="translate(299.609375 0)"/>
      <use xlink:href="#DejaVuSans-6e" transform="translate(360.791016 0)"/>
     </g>
    </g>
   </g>
   <g id="matplotlib.axis_2">
    <g id="ytick_1">
     <g id="line2d_5">
      <defs>
       <path id="meccdf06155" d="M 0 0 
L -3.5 0 
" style="stroke: #000000; stroke-width: 0.8"/>
      </defs>
      <g>
       <use xlink:href="#meccdf06155" x="47.81" y="108.893582" style="stroke: #000000; stroke-width: 0.8"/>
      </g>
     </g>
     <g id="text_2">
      <!-- 2.5 -->
      <g transform="translate(24.906875 112.6928) scale(0.1 -0.1)">
       <defs>
        <path id="DejaVuSans-32" d="M 1228 531 
L 3431 531 
L 3431 0 
L 469 0 
L 469 531 
Q 828 903 1448 1529 
Q 2069 2156 2228 2338 
Q 2531 2678 2651 2914 
Q 2772 3150 2772 3378 
Q 2772 3750 2511 3984 
Q 2250 4219 1831 4219 
Q 1534 4219 1204 4116 
Q 875 4013 500 3803 
L 500 4441 
Q 881 4594 1212 4672 
Q 1544 4750 1819 4750 
Q 2544 4750 2975 4387 
Q 3406 4025 3406 3419 
Q 3406 3131 3298 2873 
Q 3191 2616 2906 2266 
Q 2828 2175 2409 1742 
Q 1991 1309 1228 531 
z
" transform="scale(0.015625)"/>
        <path id="DejaVuSans-2e" d="M 684 794 
L 1344 794 
L 1344 0 
L 684 0 
L 684 794 
z
" transform="scale(0.015625)"/>
        <path id="DejaVuSans-35" d="M 691 4666 
L 3169 4666 
L 3169 4134 
L 1269 4134 
L 1269 2991 
Q 1406 3038 1543 3061 
Q 1681 3084 1819 3084 
Q 2600 3084 3056 2656 
Q 3513 2228 3513 1497 
Q 3513 744 3044 326 
Q 2575 -91 1722 -91 
Q 1428 -91 1123 -41 
Q 819 9 494 109 
L 494 744 
Q 775 591 1075 516 
Q 1375 441 1709 441 
Q 2250 441 2565 725 
Q 2881 1009 2881 1497 
Q 2881 1984 2565 2268 
Q 2250 2553 1709 2553 
Q 1456 2553 1204 2497 
Q 953 2441 691 2322 
L 691 4666 
z
" transform="scale(0.015625)"/>
       </defs>
       <use xlink:href="#DejaVuSans-32"/>
       <use xlink:href="#DejaVuSans-2e" transform="translate(63.623047 0)"/>
       <use xlink:href="#DejaVuSans-35" transform="translate(95.410156 0)"/>
      </g>
     </g>
    </g>
    <g id="ytick_2">
     <g id="line2d_6">
      <g>
       <use xlink:href="#meccdf06155" x="47.81" y="70.270533" style="stroke: #000000; stroke-width: 0.8"/>
      </g>
     </g>
     <g id="text_3">
      <!-- 3.0 -->
      <g transform="translate(24.906875 74.069751) scale(0.1 -0.1)">
       <defs>
        <path id="DejaVuSans-33" d="M 2597 2516 
Q 3050 2419 3304 2112 
Q 3559 1806 3559 1356 
Q 3559 666 3084 287 
Q 2609 -91 1734 -91 
Q 1441 -91 1130 -33 
Q 819 25 488 141 
L 488 750 
Q 750 597 1062 519 
Q 1375 441 1716 441 
Q 2309 441 2620 675 
Q 2931 909 2931 1356 
Q 2931 1769 2642 2001 
Q 2353 2234 1838 2234 
L 1294 2234 
L 1294 2753 
L 1863 2753 
Q 2328 2753 2575 2939 
Q 2822 3125 2822 3475 
Q 2822 3834 2567 4026 
Q 2313 4219 1838 4219 
Q 1578 4219 1281 4162 
Q 984 4106 628 3988 
L 628 4550 
Q 988 4650 1302 4700 
Q 1616 4750 1894 4750 
Q 2613 4750 3031 4423 
Q 3450 4097 3450 3541 
Q 3450 3153 3228 2886 
Q 3006 2619 2597 2516 
z
" transform="scale(0.015625)"/>
        <path id="DejaVuSans-30" d="M 2034 4250 
Q 1547 4250 1301 3770 
Q 1056 3291 1056 2328 
Q 1056 1369 1301 889 
Q 1547 409 2034 409 
Q 2525 409 2770 889 
Q 3016 1369 3016 2328 
Q 3016 3291 2770 3770 
Q 2525 4250 2034 4250 
z
M 2034 4750 
Q 2819 4750 3233 4129 
Q 3647 3509 3647 2328 
Q 3647 1150 3233 529 
Q 2819 -91 2034 -91 
Q 1250 -91 836 529 
Q 422 1150 422 2328 
Q 422 3509 836 4129 
Q 1250 4750 2034 4750 
z
" transform="scale(0.015625)"/>
       </defs>
       <use xlink:href="#DejaVuSans-33"/>
       <use xlink:href="#DejaVuSans-2e" transform="translate(63.623047 0)"/>
       <use xlink:href="#DejaVuSans-30" transform="translate(95.410156 0)"/>
      </g>
     </g>
    </g>
    <g id="ytick_3">
     <g id="line2d_7">
      <g>
       <use xlink:href="#meccdf06155" x="47.81" y="31.647484" style="stroke: #000000; stroke-width: 0.8"/>
      </g>
     </g>
     <g id="text_4">
      <!-- 3.5 -->
      <g transform="translate(24.906875 35.446703) scale(0.1 -0.1)">
       <use xlink:href="#DejaVuSans-33"/>
       <use xlink:href="#DejaVuSans-2e" transform="translate(63.623047 0)"/>
       <use xlink:href="#DejaVuSans-35" transform="translate(95.410156 0)"/>
      </g>
     </g>
    </g>
    <g id="text_5">
     <!-- Loss -->
     <g transform="translate(18.827188 95.202188) rotate(-90) scale(0.1 -0.1)">
      <defs>
       <path id="DejaVuSans-4c" d="M 628 4666 
L 1259 4666 
L 1259 531 
L 3531 531 
L 3531 0 
L 628 0 
L 628 4666 
z
" transform="scale(0.015625)"/>
       <path id="DejaVuSans-73" d="M 2834 3397 
L 2834 2853 
Q 2591 2978 2328 3040 
Q 2066 3103 1784 3103 
Q 1356 3103 1142 2972 
Q 928 2841 928 2578 
Q 928 2378 1081 2264 
Q 1234 2150 1697 2047 
L 1894 2003 
Q 2506 1872 2764 1633 
Q 3022 1394 3022 966 
Q 3022 478 2636 193 
Q 2250 -91 1575 -91 
Q 1294 -91 989 -36 
Q 684 19 347 128 
L 347 722 
Q 666 556 975 473 
Q 1284 391 1588 391 
Q 1994 391 2212 530 
Q 2431 669 2431 922 
Q 2431 1156 2273 1281 
Q 2116 1406 1581 1522 
L 1381 1569 
Q 847 1681 609 1914 
Q 372 2147 372 2553 
Q 372 3047 722 3315 
Q 1072 3584 1716 3584 
Q 2034 3584 2315 3537 
Q 2597 3491 2834 3397 
z
" transform="scale(0.015625)"/>
      </defs>
      <use xlink:href="#DejaVuSans-4c"/>
      <use xlink:href="#DejaVuSans-6f" transform="translate(53.962891 0)"/>
      <use xlink:href="#DejaVuSans-73" transform="translate(115.144531 0)"/>
      <use xlink:href="#DejaVuSans-73" transform="translate(167.244141 0)"/>
     </g>
    </g>
   </g>
   <g id="line2d_8">
    <path d="M 55.864091 30.785 
L 56.763989 81.780327 
L 58.563786 100.048227 
L 59.463685 102.025474 
L 60.363583 102.984026 
L 61.263481 107.493583 
L 62.16338 113.045914 
L 63.063278 114.312116 
L 63.963177 111.680634 
L 64.863075 114.45704 
L 65.762974 113.832309 
L 66.662872 119.463063 
L 67.56277 117.54253 
L 68.462669 117.43657 
L 69.362567 119.590685 
L 70.262466 120.131937 
L 71.162364 119.18698 
L 72.062263 119.028895 
L 72.962161 123.671001 
L 73.862059 121.970011 
L 74.761958 118.828439 
L 76.561755 124.521972 
L 77.461653 123.962508 
L 78.361552 122.680097 
L 79.26145 124.675331 
L 80.161348 122.771855 
L 81.061247 121.428442 
L 81.961145 124.575826 
L 82.861044 122.514907 
L 83.760942 119.841419 
L 84.660841 123.703399 
L 85.560739 123.596912 
L 86.460637 125.306836 
L 87.360536 122.455904 
L 88.260434 122.362122 
L 89.160333 122.962512 
L 90.060231 121.128721 
L 90.96013 123.560919 
L 91.860028 122.741142 
L 92.759926 123.947323 
L 93.659825 126.196229 
L 94.559723 123.694217 
L 95.459622 124.436568 
L 96.35952 123.540608 
L 97.259418 123.349428 
L 98.159317 122.93572 
L 99.059215 123.732091 
L 99.959114 122.761576 
L 100.859012 124.875648 
L 101.758911 120.53019 
L 102.658809 124.865891 
L 103.558707 124.555487 
L 104.458606 123.583953 
L 105.358504 120.719929 
L 106.258403 126.943422 
L 107.158301 125.866765 
L 108.0582 124.138458 
L 109.857996 126.508399 
L 110.757895 128.45733 
L 111.657793 129.057951 
L 112.557692 130.922612 
L 113.45759 129.943571 
L 114.357489 130.235142 
L 115.257387 131.550975 
L 116.157285 130.942384 
L 117.057184 128.702236 
L 117.957082 128.676556 
L 118.856981 131.864288 
L 119.756879 130.870933 
L 120.656778 129.593103 
L 121.556676 131.053553 
L 122.456574 130.485437 
L 123.356473 129.045151 
L 124.256371 128.545246 
L 125.15627 130.896887 
L 126.056168 131.158774 
L 126.956067 132.684207 
L 127.855965 134.576191 
L 128.755863 132.351547 
L 129.655762 129.488838 
L 130.55566 132.8466 
L 131.455559 132.113838 
L 132.355457 133.614222 
L 133.255356 130.378326 
L 134.155254 129.920403 
L 135.055152 132.227074 
L 135.955051 133.195282 
L 136.854949 131.363873 
L 137.754848 131.528935 
L 138.654746 130.124701 
L 139.554644 130.243955 
L 140.454543 132.254537 
L 141.354441 133.766275 
L 142.25434 132.704032 
L 143.154238 129.448307 
L 144.054137 132.305157 
L 144.954035 129.794053 
L 145.853933 133.11824 
L 146.753832 134.089874 
L 147.65373 133.84954 
L 148.553629 133.418589 
L 149.453527 132.355265 
L 150.353426 131.640718 
L 152.153222 134.174441 
L 153.053121 131.724461 
L 153.953019 130.941926 
L 154.852918 130.786424 
L 155.752816 129.626894 
L 156.652715 132.011953 
L 157.552613 130.054914 
L 158.452511 134.937374 
L 159.35241 131.542796 
L 160.252308 135.028038 
L 161.152207 133.949428 
L 162.052105 132.155454 
L 162.952004 129.320526 
L 163.851902 129.467206 
L 164.7518 130.948686 
L 165.651699 132.902068 
L 166.551597 134.235038 
L 167.451496 133.625271 
L 168.351394 134.06367 
L 169.251293 135.526246 
L 170.151191 135.447723 
L 171.051089 131.7429 
L 171.950988 134.880165 
L 172.850886 134.540902 
L 173.750785 133.443461 
L 174.650683 135.307679 
L 175.550582 135.045062 
L 176.45048 136.554614 
L 177.350378 133.94515 
L 178.250277 135.048936 
L 179.150175 136.607773 
L 180.050074 135.796321 
L 180.949972 134.009602 
L 181.84987 135.753484 
L 182.749769 134.832707 
L 183.649667 133.693444 
L 184.549566 133.236891 
L 185.449464 137.685 
L 186.349363 134.950538 
L 187.249261 134.077806 
L 188.149159 135.788833 
L 189.049058 134.31162 
L 189.948956 135.1257 
L 190.848855 135.260529 
L 191.748753 135.646679 
L 192.648652 136.248467 
L 193.54855 137.308487 
L 194.448448 132.961315 
L 195.348347 135.540883 
L 196.248245 134.530204 
L 197.148144 134.844766 
L 198.048042 134.341682 
L 198.947941 133.500014 
L 199.847839 136.225182 
L 200.747737 137.070527 
L 201.647636 136.344241 
L 202.547534 137.617458 
L 203.447433 134.930791 
L 204.347331 135.541324 
L 205.24723 135.06361 
L 206.147128 136.720722 
L 207.047026 135.27545 
L 207.946925 135.26064 
L 208.846823 134.81174 
L 209.746722 137.030941 
L 210.64662 133.665562 
L 211.546519 136.751894 
L 212.446417 137.071979 
L 213.346315 136.499303 
L 215.146112 136.545108 
L 216.046011 134.94251 
L 216.945909 135.713073 
L 216.945909 135.713073 
" clip-path="url(#pa8c1852222)" style="fill: none; stroke: #1f77b4; stroke-width: 1.5; stroke-linecap: square"/>
   </g>
   <g id="patch_3">
    <path d="M 47.81 143.03 
L 47.81 25.44 
" style="fill: none; stroke: #000000; stroke-width: 0.8; stroke-linejoin: miter; stroke-linecap: square"/>
   </g>
   <g id="patch_4">
    <path d="M 225 143.03 
L 225 25.44 
" style="fill: none; stroke: #000000; stroke-width: 0.8; stroke-linejoin: miter; stroke-linecap: square"/>
   </g>
   <g id="patch_5">
    <path d="M 47.81 143.03 
L 225 143.03 
" style="fill: none; stroke: #000000; stroke-width: 0.8; stroke-linejoin: miter; stroke-linecap: square"/>
   </g>
   <g id="patch_6">
    <path d="M 47.81 25.44 
L 225 25.44 
" style="fill: none; stroke: #000000; stroke-width: 0.8; stroke-linejoin: miter; stroke-linecap: square"/>
   </g>
   <g id="text_6">
    <!-- Total loss -->
    <g transform="translate(108.896875 19.44) scale(0.12 -0.12)">
     <defs>
      <path id="DejaVuSans-54" d="M -19 4666 
L 3928 4666 
L 3928 4134 
L 2272 4134 
L 2272 0 
L 1638 0 
L 1638 4134 
L -19 4134 
L -19 4666 
z
" transform="scale(0.015625)"/>
      <path id="DejaVuSans-6c" d="M 603 4863 
L 1178 4863 
L 1178 0 
L 603 0 
L 603 4863 
z
" transform="scale(0.015625)"/>
      <path id="DejaVuSans-20" transform="scale(0.015625)"/>
     </defs>
     <use xlink:href="#DejaVuSans-54"/>
     <use xlink:href="#DejaVuSans-6f" transform="translate(44.083984 0)"/>
     <use xlink:href="#DejaVuSans-74" transform="translate(105.265625 0)"/>
     <use xlink:href="#DejaVuSans-61" transform="translate(144.474609 0)"/>
     <use xlink:href="#DejaVuSans-6c" transform="translate(205.753906 0)"/>
     <use xlink:href="#DejaVuSans-20" transform="translate(233.537109 0)"/>
     <use xlink:href="#DejaVuSans-6c" transform="translate(265.324219 0)"/>
     <use xlink:href="#DejaVuSans-6f" transform="translate(293.107422 0)"/>
     <use xlink:href="#DejaVuSans-73" transform="translate(354.289062 0)"/>
     <use xlink:href="#DejaVuSans-73" transform="translate(406.388672 0)"/>
    </g>
   </g>
  </g>
  <g id="axes_2">
   <g id="patch_7">
    <path d="M 272.81 143.03 
L 450 143.03 
L 450 25.44 
L 272.81 25.44 
z
" style="fill: #ffffff"/>
   </g>
   <g id="matplotlib.axis_3">
    <g id="xtick_5">
     <g id="line2d_9">
      <g>
       <use xlink:href="#ma0b9f7b40a" x="279.964192" y="143.03" style="stroke: #000000; stroke-width: 0.8"/>
      </g>
     </g>
    </g>
    <g id="xtick_6">
     <g id="line2d_10">
      <g>
       <use xlink:href="#ma0b9f7b40a" x="324.959114" y="143.03" style="stroke: #000000; stroke-width: 0.8"/>
      </g>
     </g>
    </g>
    <g id="xtick_7">
     <g id="line2d_11">
      <g>
       <use xlink:href="#ma0b9f7b40a" x="369.954035" y="143.03" style="stroke: #000000; stroke-width: 0.8"/>
      </g>
     </g>
    </g>
    <g id="xtick_8">
     <g id="line2d_12">
      <g>
       <use xlink:href="#ma0b9f7b40a" x="414.948956" y="143.03" style="stroke: #000000; stroke-width: 0.8"/>
      </g>
     </g>
    </g>
    <g id="text_7">
     <!-- Iteration -->
     <g transform="translate(340.196406 158.128437) scale(0.1 -0.1)">
      <use xlink:href="#DejaVuSans-49"/>
      <use xlink:href="#DejaVuSans-74" transform="translate(29.492188 0)"/>
      <use xlink:href="#DejaVuSans-65" transform="translate(68.701172 0)"/>
      <use xlink:href="#DejaVuSans-72" transform="translate(130.224609 0)"/>
      <use xlink:href="#DejaVuSans-61" transform="translate(171.337891 0)"/>
      <use xlink:href="#DejaVuSans-74" transform="translate(232.617188 0)"/>
      <use xlink:href="#DejaVuSans-69" transform="translate(271.826172 0)"/>
      <use xlink:href="#DejaVuSans-6f" transform="translate(299.609375 0)"/>
      <use xlink:href="#DejaVuSans-6e" transform="translate(360.791016 0)"/>
     </g>
    </g>
   </g>
   <g id="matplotlib.axis_4">
    <g id="ytick_4">
     <g id="line2d_13">
      <g>
       <use xlink:href="#meccdf06155" x="272.81" y="127.847092" style="stroke: #000000; stroke-width: 0.8"/>
      </g>
     </g>
     <g id="text_8">
      <!-- 1.8 -->
      <g transform="translate(249.906875 131.646311) scale(0.1 -0.1)">
       <defs>
        <path id="DejaVuSans-31" d="M 794 531 
L 1825 531 
L 1825 4091 
L 703 3866 
L 703 4441 
L 1819 4666 
L 2450 4666 
L 2450 531 
L 3481 531 
L 3481 0 
L 794 0 
L 794 531 
z
" transform="scale(0.015625)"/>
        <path id="DejaVuSans-38" d="M 2034 2216 
Q 1584 2216 1326 1975 
Q 1069 1734 1069 1313 
Q 1069 891 1326 650 
Q 1584 409 2034 409 
Q 2484 409 2743 651 
Q 3003 894 3003 1313 
Q 3003 1734 2745 1975 
Q 2488 2216 2034 2216 
z
M 1403 2484 
Q 997 2584 770 2862 
Q 544 3141 544 3541 
Q 544 4100 942 4425 
Q 1341 4750 2034 4750 
Q 2731 4750 3128 4425 
Q 3525 4100 3525 3541 
Q 3525 3141 3298 2862 
Q 3072 2584 2669 2484 
Q 3125 2378 3379 2068 
Q 3634 1759 3634 1313 
Q 3634 634 3220 271 
Q 2806 -91 2034 -91 
Q 1263 -91 848 271 
Q 434 634 434 1313 
Q 434 1759 690 2068 
Q 947 2378 1403 2484 
z
M 1172 3481 
Q 1172 3119 1398 2916 
Q 1625 2713 2034 2713 
Q 2441 2713 2670 2916 
Q 2900 3119 2900 3481 
Q 2900 3844 2670 4047 
Q 2441 4250 2034 4250 
Q 1625 4250 1398 4047 
Q 1172 3844 1172 3481 
z
" transform="scale(0.015625)"/>
       </defs>
       <use xlink:href="#DejaVuSans-31"/>
       <use xlink:href="#DejaVuSans-2e" transform="translate(63.623047 0)"/>
       <use xlink:href="#DejaVuSans-38" transform="translate(95.410156 0)"/>
      </g>
     </g>
    </g>
    <g id="ytick_5">
     <g id="line2d_14">
      <g>
       <use xlink:href="#meccdf06155" x="272.81" y="94.388092" style="stroke: #000000; stroke-width: 0.8"/>
      </g>
     </g>
     <g id="text_9">
      <!-- 2.0 -->
      <g transform="translate(249.906875 98.18731) scale(0.1 -0.1)">
       <use xlink:href="#DejaVuSans-32"/>
       <use xlink:href="#DejaVuSans-2e" transform="translate(63.623047 0)"/>
       <use xlink:href="#DejaVuSans-30" transform="translate(95.410156 0)"/>
      </g>
     </g>
    </g>
    <g id="ytick_6">
     <g id="line2d_15">
      <g>
       <use xlink:href="#meccdf06155" x="272.81" y="60.929091" style="stroke: #000000; stroke-width: 0.8"/>
      </g>
     </g>
     <g id="text_10">
      <!-- 2.2 -->
      <g transform="translate(249.906875 64.72831) scale(0.1 -0.1)">
       <use xlink:href="#DejaVuSans-32"/>
       <use xlink:href="#DejaVuSans-2e" transform="translate(63.623047 0)"/>
       <use xlink:href="#DejaVuSans-32" transform="translate(95.410156 0)"/>
      </g>
     </g>
    </g>
    <g id="ytick_7">
     <g id="line2d_16">
      <g>
       <use xlink:href="#meccdf06155" x="272.81" y="27.470091" style="stroke: #000000; stroke-width: 0.8"/>
      </g>
     </g>
     <g id="text_11">
      <!-- 2.4 -->
      <g transform="translate(249.906875 31.269309) scale(0.1 -0.1)">
       <defs>
        <path id="DejaVuSans-34" d="M 2419 4116 
L 825 1625 
L 2419 1625 
L 2419 4116 
z
M 2253 4666 
L 3047 4666 
L 3047 1625 
L 3713 1625 
L 3713 1100 
L 3047 1100 
L 3047 0 
L 2419 0 
L 2419 1100 
L 313 1100 
L 313 1709 
L 2253 4666 
z
" transform="scale(0.015625)"/>
       </defs>
       <use xlink:href="#DejaVuSans-32"/>
       <use xlink:href="#DejaVuSans-2e" transform="translate(63.623047 0)"/>
       <use xlink:href="#DejaVuSans-34" transform="translate(95.410156 0)"/>
      </g>
     </g>
    </g>
    <g id="text_12">
     <!-- Loss -->
     <g transform="translate(243.827188 95.202188) rotate(-90) scale(0.1 -0.1)">
      <use xlink:href="#DejaVuSans-4c"/>
      <use xlink:href="#DejaVuSans-6f" transform="translate(53.962891 0)"/>
      <use xlink:href="#DejaVuSans-73" transform="translate(115.144531 0)"/>
      <use xlink:href="#DejaVuSans-73" transform="translate(167.244141 0)"/>
     </g>
    </g>
   </g>
   <g id="line2d_17">
    <path d="M 280.864091 30.785 
L 281.763989 99.958035 
L 282.663888 112.012939 
L 283.563786 114.815804 
L 286.263481 114.943512 
L 287.16338 111.817752 
L 288.063278 113.263029 
L 288.963177 117.120988 
L 289.863075 117.749453 
L 290.762974 116.665312 
L 291.662872 118.798793 
L 292.56277 118.371501 
L 293.462669 117.066479 
L 294.362567 120.165443 
L 295.262466 120.556409 
L 296.162364 119.429217 
L 297.062263 117.652902 
L 297.962161 118.760253 
L 298.862059 119.254098 
L 299.761958 121.097041 
L 300.661856 121.294043 
L 301.561755 122.866451 
L 302.461653 121.699262 
L 303.361552 121.98984 
L 304.26145 123.911975 
L 305.161348 121.814629 
L 306.061247 121.839737 
L 306.961145 122.762155 
L 307.861044 118.325376 
L 308.760942 120.33862 
L 309.660841 123.017944 
L 310.560739 119.800506 
L 311.460637 119.173296 
L 312.360536 119.439329 
L 313.260434 121.944065 
L 314.160333 119.006475 
L 315.060231 118.991684 
L 315.96013 119.878954 
L 316.860028 118.189778 
L 317.759926 120.839256 
L 318.659825 119.847012 
L 319.559723 122.598658 
L 320.459622 123.223098 
L 321.35952 122.399001 
L 322.259418 124.262553 
L 323.159317 123.035276 
L 324.059215 118.622609 
L 324.959114 117.825743 
L 325.859012 119.015131 
L 328.558707 121.639253 
L 329.458606 124.806437 
L 330.358504 122.885295 
L 331.258403 125.040681 
L 332.158301 125.325751 
L 333.0582 123.533938 
L 333.958098 123.980962 
L 334.857996 127.33279 
L 335.757895 127.823648 
L 336.657793 127.420536 
L 337.557692 126.263037 
L 338.45759 126.362601 
L 339.357489 127.324357 
L 340.257387 123.922574 
L 341.157285 122.857944 
L 342.057184 122.537529 
L 342.957082 122.341747 
L 343.856981 125.74272 
L 344.756879 124.496414 
L 346.556676 125.585079 
L 347.456574 125.279126 
L 348.356473 124.661851 
L 349.256371 127.477242 
L 350.15627 126.065687 
L 351.056168 124.066991 
L 351.956067 126.879491 
L 352.855965 127.304334 
L 353.755863 124.547231 
L 354.655762 125.638128 
L 355.55566 129.666605 
L 356.455559 127.097075 
L 357.355457 127.189533 
L 358.255356 127.698664 
L 359.155254 126.835345 
L 360.055152 125.547894 
L 360.955051 126.165469 
L 361.854949 125.098473 
L 362.754848 124.208937 
L 363.654746 127.218059 
L 364.554644 125.741639 
L 365.454543 126.733894 
L 366.354441 124.867454 
L 368.154238 122.517696 
L 369.054137 124.060644 
L 369.954035 123.507535 
L 370.853933 126.265743 
L 371.753832 124.856728 
L 372.65373 124.195773 
L 373.553629 122.411994 
L 374.453527 121.796269 
L 376.253324 121.775061 
L 377.153222 122.777088 
L 378.053121 121.223335 
L 378.953019 121.88828 
L 379.852918 121.796688 
L 380.752816 122.469013 
L 381.652715 121.812267 
L 382.552613 123.234305 
L 383.452511 122.860083 
L 384.35241 124.291421 
L 385.252308 124.194047 
L 386.152207 123.071842 
L 387.052105 122.816101 
L 387.952004 125.066225 
L 388.851902 125.924149 
L 389.7518 129.334095 
L 390.651699 131.085986 
L 391.551597 130.324394 
L 392.451496 130.679288 
L 393.351394 129.089405 
L 394.251293 128.854014 
L 395.151191 127.990744 
L 396.051089 126.693306 
L 396.950988 125.813067 
L 397.850886 126.106837 
L 399.650683 127.182459 
L 400.550582 128.59169 
L 401.45048 126.801425 
L 402.350378 127.171375 
L 403.250277 128.822619 
L 404.150175 128.887283 
L 405.050074 129.108826 
L 405.949972 126.395762 
L 406.84987 125.880743 
L 407.749769 125.757934 
L 408.649667 124.989919 
L 409.549566 127.370131 
L 410.449464 125.651306 
L 411.349363 123.576026 
L 412.249261 124.844078 
L 413.149159 125.201532 
L 414.948956 128.023422 
L 415.848855 126.329073 
L 416.748753 128.152188 
L 417.648652 126.101267 
L 418.54855 126.003654 
L 419.448448 124.860672 
L 420.348347 126.337491 
L 421.248245 127.447796 
L 422.148144 127.21832 
L 423.048042 125.330194 
L 423.947941 125.885701 
L 424.847839 126.041881 
L 425.747737 125.39291 
L 427.547534 125.816156 
L 428.447433 127.084037 
L 429.347331 127.480629 
L 430.24723 126.500015 
L 431.147128 127.195824 
L 432.047026 129.383067 
L 432.946925 126.98671 
L 434.746722 129.506148 
L 436.546519 127.514269 
L 437.446417 128.673916 
L 438.346315 129.052027 
L 439.246214 130.331256 
L 440.146112 131.064957 
L 441.046011 132.543891 
L 441.945909 137.685 
L 441.945909 137.685 
" clip-path="url(#p6684e204f9)" style="fill: none; stroke: #1f77b4; stroke-width: 1.5; stroke-linecap: square"/>
   </g>
   <g id="patch_8">
    <path d="M 272.81 143.03 
L 272.81 25.44 
" style="fill: none; stroke: #000000; stroke-width: 0.8; stroke-linejoin: miter; stroke-linecap: square"/>
   </g>
   <g id="patch_9">
    <path d="M 450 143.03 
L 450 25.44 
" style="fill: none; stroke: #000000; stroke-width: 0.8; stroke-linejoin: miter; stroke-linecap: square"/>
   </g>
   <g id="patch_10">
    <path d="M 272.81 143.03 
L 450 143.03 
" style="fill: none; stroke: #000000; stroke-width: 0.8; stroke-linejoin: miter; stroke-linecap: square"/>
   </g>
   <g id="patch_11">
    <path d="M 272.81 25.44 
L 450 25.44 
" style="fill: none; stroke: #000000; stroke-width: 0.8; stroke-linejoin: miter; stroke-linecap: square"/>
   </g>
   <g id="text_13">
    <!-- Policy loss -->
    <g transform="translate(330.653125 19.44) scale(0.12 -0.12)">
     <defs>
      <path id="DejaVuSans-50" d="M 1259 4147 
L 1259 2394 
L 2053 2394 
Q 2494 2394 2734 2622 
Q 2975 2850 2975 3272 
Q 2975 3691 2734 3919 
Q 2494 4147 2053 4147 
L 1259 4147 
z
M 628 4666 
L 2053 4666 
Q 2838 4666 3239 4311 
Q 3641 3956 3641 3272 
Q 3641 2581 3239 2228 
Q 2838 1875 2053 1875 
L 1259 1875 
L 1259 0 
L 628 0 
L 628 4666 
z
" transform="scale(0.015625)"/>
      <path id="DejaVuSans-63" d="M 3122 3366 
L 3122 2828 
Q 2878 2963 2633 3030 
Q 2388 3097 2138 3097 
Q 1578 3097 1268 2742 
Q 959 2388 959 1747 
Q 959 1106 1268 751 
Q 1578 397 2138 397 
Q 2388 397 2633 464 
Q 2878 531 3122 666 
L 3122 134 
Q 2881 22 2623 -34 
Q 2366 -91 2075 -91 
Q 1284 -91 818 406 
Q 353 903 353 1747 
Q 353 2603 823 3093 
Q 1294 3584 2113 3584 
Q 2378 3584 2631 3529 
Q 2884 3475 3122 3366 
z
" transform="scale(0.015625)"/>
      <path id="DejaVuSans-79" d="M 2059 -325 
Q 1816 -950 1584 -1140 
Q 1353 -1331 966 -1331 
L 506 -1331 
L 506 -850 
L 844 -850 
Q 1081 -850 1212 -737 
Q 1344 -625 1503 -206 
L 1606 56 
L 191 3500 
L 800 3500 
L 1894 763 
L 2988 3500 
L 3597 3500 
L 2059 -325 
z
" transform="scale(0.015625)"/>
     </defs>
     <use xlink:href="#DejaVuSans-50"/>
     <use xlink:href="#DejaVuSans-6f" transform="translate(56.677734 0)"/>
     <use xlink:href="#DejaVuSans-6c" transform="translate(117.859375 0)"/>
     <use xlink:href="#DejaVuSans-69" transform="translate(145.642578 0)"/>
     <use xlink:href="#DejaVuSans-63" transform="translate(173.425781 0)"/>
     <use xlink:href="#DejaVuSans-79" transform="translate(228.40625 0)"/>
     <use xlink:href="#DejaVuSans-20" transform="translate(287.585938 0)"/>
     <use xlink:href="#DejaVuSans-6c" transform="translate(319.373047 0)"/>
     <use xlink:href="#DejaVuSans-6f" transform="translate(347.15625 0)"/>
     <use xlink:href="#DejaVuSans-73" transform="translate(408.337891 0)"/>
     <use xlink:href="#DejaVuSans-73" transform="translate(460.4375 0)"/>
    </g>
   </g>
  </g>
  <g id="axes_3">
   <g id="patch_12">
    <path d="M 47.81 303.64 
L 225 303.64 
L 225 186.05 
L 47.81 186.05 
z
" style="fill: #ffffff"/>
   </g>
   <g id="matplotlib.axis_5">
    <g id="xtick_9">
     <g id="line2d_18">
      <g>
       <use xlink:href="#ma0b9f7b40a" x="54.964192" y="303.64" style="stroke: #000000; stroke-width: 0.8"/>
      </g>
     </g>
     <g id="text_14">
      <!-- 0 -->
      <g transform="translate(51.782942 318.238437) scale(0.1 -0.1)">
       <use xlink:href="#DejaVuSans-30"/>
      </g>
     </g>
    </g>
    <g id="xtick_10">
     <g id="line2d_19">
      <g>
       <use xlink:href="#ma0b9f7b40a" x="99.959114" y="303.64" style="stroke: #000000; stroke-width: 0.8"/>
      </g>
     </g>
     <g id="text_15">
      <!-- 50 -->
      <g transform="translate(93.596614 318.238437) scale(0.1 -0.1)">
       <use xlink:href="#DejaVuSans-35"/>
       <use xlink:href="#DejaVuSans-30" transform="translate(63.623047 0)"/>
      </g>
     </g>
    </g>
    <g id="xtick_11">
     <g id="line2d_20">
      <g>
       <use xlink:href="#ma0b9f7b40a" x="144.954035" y="303.64" style="stroke: #000000; stroke-width: 0.8"/>
      </g>
     </g>
     <g id="text_16">
      <!-- 100 -->
      <g transform="translate(135.410285 318.238437) scale(0.1 -0.1)">
       <use xlink:href="#DejaVuSans-31"/>
       <use xlink:href="#DejaVuSans-30" transform="translate(63.623047 0)"/>
       <use xlink:href="#DejaVuSans-30" transform="translate(127.246094 0)"/>
      </g>
     </g>
    </g>
    <g id="xtick_12">
     <g id="line2d_21">
      <g>
       <use xlink:href="#ma0b9f7b40a" x="189.948956" y="303.64" style="stroke: #000000; stroke-width: 0.8"/>
      </g>
     </g>
     <g id="text_17">
      <!-- 150 -->
      <g transform="translate(180.405206 318.238437) scale(0.1 -0.1)">
       <use xlink:href="#DejaVuSans-31"/>
       <use xlink:href="#DejaVuSans-35" transform="translate(63.623047 0)"/>
       <use xlink:href="#DejaVuSans-30" transform="translate(127.246094 0)"/>
      </g>
     </g>
    </g>
    <g id="text_18">
     <!-- Iteration -->
     <g transform="translate(115.196406 331.916562) scale(0.1 -0.1)">
      <use xlink:href="#DejaVuSans-49"/>
      <use xlink:href="#DejaVuSans-74" transform="translate(29.492188 0)"/>
      <use xlink:href="#DejaVuSans-65" transform="translate(68.701172 0)"/>
      <use xlink:href="#DejaVuSans-72" transform="translate(130.224609 0)"/>
      <use xlink:href="#DejaVuSans-61" transform="translate(171.337891 0)"/>
      <use xlink:href="#DejaVuSans-74" transform="translate(232.617188 0)"/>
      <use xlink:href="#DejaVuSans-69" transform="translate(271.826172 0)"/>
      <use xlink:href="#DejaVuSans-6f" transform="translate(299.609375 0)"/>
      <use xlink:href="#DejaVuSans-6e" transform="translate(360.791016 0)"/>
     </g>
    </g>
   </g>
   <g id="matplotlib.axis_6">
    <g id="ytick_8">
     <g id="line2d_22">
      <g>
       <use xlink:href="#meccdf06155" x="47.81" y="272.708703" style="stroke: #000000; stroke-width: 0.8"/>
      </g>
     </g>
     <g id="text_19">
      <!-- 0.4 -->
      <g transform="translate(24.906875 276.507922) scale(0.1 -0.1)">
       <use xlink:href="#DejaVuSans-30"/>
       <use xlink:href="#DejaVuSans-2e" transform="translate(63.623047 0)"/>
       <use xlink:href="#DejaVuSans-34" transform="translate(95.410156 0)"/>
      </g>
     </g>
    </g>
    <g id="ytick_9">
     <g id="line2d_23">
      <g>
       <use xlink:href="#meccdf06155" x="47.81" y="232.840689" style="stroke: #000000; stroke-width: 0.8"/>
      </g>
     </g>
     <g id="text_20">
      <!-- 0.6 -->
      <g transform="translate(24.906875 236.639908) scale(0.1 -0.1)">
       <defs>
        <path id="DejaVuSans-36" d="M 2113 2584 
Q 1688 2584 1439 2293 
Q 1191 2003 1191 1497 
Q 1191 994 1439 701 
Q 1688 409 2113 409 
Q 2538 409 2786 701 
Q 3034 994 3034 1497 
Q 3034 2003 2786 2293 
Q 2538 2584 2113 2584 
z
M 3366 4563 
L 3366 3988 
Q 3128 4100 2886 4159 
Q 2644 4219 2406 4219 
Q 1781 4219 1451 3797 
Q 1122 3375 1075 2522 
Q 1259 2794 1537 2939 
Q 1816 3084 2150 3084 
Q 2853 3084 3261 2657 
Q 3669 2231 3669 1497 
Q 3669 778 3244 343 
Q 2819 -91 2113 -91 
Q 1303 -91 875 529 
Q 447 1150 447 2328 
Q 447 3434 972 4092 
Q 1497 4750 2381 4750 
Q 2619 4750 2861 4703 
Q 3103 4656 3366 4563 
z
" transform="scale(0.015625)"/>
       </defs>
       <use xlink:href="#DejaVuSans-30"/>
       <use xlink:href="#DejaVuSans-2e" transform="translate(63.623047 0)"/>
       <use xlink:href="#DejaVuSans-36" transform="translate(95.410156 0)"/>
      </g>
     </g>
    </g>
    <g id="ytick_10">
     <g id="line2d_24">
      <g>
       <use xlink:href="#meccdf06155" x="47.81" y="192.972675" style="stroke: #000000; stroke-width: 0.8"/>
      </g>
     </g>
     <g id="text_21">
      <!-- 0.8 -->
      <g transform="translate(24.906875 196.771894) scale(0.1 -0.1)">
       <use xlink:href="#DejaVuSans-30"/>
       <use xlink:href="#DejaVuSans-2e" transform="translate(63.623047 0)"/>
       <use xlink:href="#DejaVuSans-38" transform="translate(95.410156 0)"/>
      </g>
     </g>
    </g>
    <g id="text_22">
     <!-- Loss -->
     <g transform="translate(18.827188 255.812187) rotate(-90) scale(0.1 -0.1)">
      <use xlink:href="#DejaVuSans-4c"/>
      <use xlink:href="#DejaVuSans-6f" transform="translate(53.962891 0)"/>
      <use xlink:href="#DejaVuSans-73" transform="translate(115.144531 0)"/>
      <use xlink:href="#DejaVuSans-73" transform="translate(167.244141 0)"/>
     </g>
    </g>
   </g>
   <g id="line2d_25">
    <path d="M 55.864091 191.395 
L 56.763989 235.199444 
L 57.663888 238.849446 
L 58.563786 253.885531 
L 59.463685 254.142708 
L 60.363583 252.33339 
L 61.263481 260.161709 
L 62.16338 274.859832 
L 63.063278 273.560038 
L 63.963177 259.846892 
L 64.863075 264.314168 
L 65.762974 262.378396 
L 66.662872 273.017023 
L 67.56277 267.375802 
L 68.462669 267.683432 
L 69.362567 268.679085 
L 70.262466 268.918188 
L 71.162364 267.25963 
L 72.062263 268.354318 
L 72.962161 278.460686 
L 73.862059 273.109568 
L 74.761958 262.430856 
L 75.661856 269.810501 
L 76.561755 274.708584 
L 77.461653 274.598237 
L 78.361552 270.684848 
L 79.26145 273.481173 
L 80.161348 271.048062 
L 81.061247 267.576849 
L 81.961145 274.537688 
L 82.861044 274.440638 
L 83.760942 265.126072 
L 84.660841 271.971103 
L 85.560739 275.656616 
L 86.460637 280.527029 
L 87.360536 272.753614 
L 88.260434 269.617528 
L 89.160333 274.616244 
L 90.060231 269.82139 
L 90.96013 274.995867 
L 92.759926 274.790983 
L 93.659825 281.814832 
L 94.559723 272.236785 
L 95.459622 273.450138 
L 96.35952 272.137206 
L 97.259418 269.604826 
L 98.159317 270.163872 
L 99.059215 277.656471 
L 99.959114 276.160087 
L 100.859012 280.228 
L 101.758911 267.875149 
L 102.658809 277.866928 
L 103.558707 275.943059 
L 104.458606 269.629553 
L 105.358504 264.605605 
L 106.258403 278.121032 
L 107.158301 275.076166 
L 108.0582 272.779908 
L 108.958098 275.276258 
L 109.857996 274.579131 
L 110.757895 278.834798 
L 111.657793 280.671927 
L 112.557692 286.670833 
L 113.45759 283.834106 
L 114.357489 283.252636 
L 115.257387 290.519461 
L 116.157285 290.036052 
L 117.057184 284.457327 
L 117.957082 284.447558 
L 118.856981 288.448196 
L 119.756879 287.201438 
L 120.656778 283.097811 
L 121.556676 286.050917 
L 122.456574 284.792205 
L 123.356473 281.654813 
L 124.256371 276.856404 
L 125.15627 284.458557 
L 126.056168 287.369499 
L 126.956067 287.810116 
L 127.855965 292.047014 
L 128.755863 289.454488 
L 129.655762 280.632394 
L 130.55566 284.374384 
L 131.455559 285.42413 
L 132.355457 289.064258 
L 133.255356 279.985704 
L 134.155254 279.715246 
L 135.055152 287.087472 
L 135.955051 288.735857 
L 136.854949 285.166991 
L 137.754848 286.543291 
L 138.654746 279.229731 
L 139.554644 281.198969 
L 140.454543 285.112612 
L 141.354441 291.144271 
L 142.25434 289.603346 
L 143.154238 282.604256 
L 144.054137 288.047778 
L 144.954035 282.140918 
L 145.853933 287.352364 
L 146.753832 291.453697 
L 147.65373 291.538044 
L 148.553629 292.469134 
L 150.353426 288.509543 
L 151.253324 291.577761 
L 152.153222 293.673779 
L 153.053121 289.13305 
L 153.953019 286.253314 
L 154.852918 285.896083 
L 155.752816 282.039413 
L 156.652715 288.917654 
L 157.552613 282.113173 
L 158.452511 295.100734 
L 159.35241 284.565754 
L 160.252308 293.616617 
L 161.152207 292.118081 
L 162.052105 287.736941 
L 162.952004 277.687439 
L 163.851902 277.018863 
L 164.7518 276.767293 
L 165.651699 279.709961 
L 166.551597 284.047398 
L 167.451496 282.040062 
L 168.351394 285.05526 
L 169.251293 289.100137 
L 170.151191 289.915553 
L 171.051089 281.888828 
L 171.950988 291.023688 
L 172.850886 289.787829 
L 173.750785 286.232906 
L 174.650683 290.463436 
L 175.550582 288.095898 
L 176.45048 294.114518 
L 177.350378 286.928348 
L 178.250277 287.798547 
L 179.150175 291.734005 
L 180.050074 289.365092 
L 180.949972 287.976096 
L 181.84987 293.079298 
L 183.649667 288.803555 
L 184.549566 284.77811 
L 185.449464 298.295 
L 186.349363 293.700495 
L 187.249261 289.926409 
L 188.149159 293.905692 
L 189.049058 288.342803 
L 189.948956 288.810404 
L 190.848855 291.167026 
L 191.748753 289.981012 
L 192.648652 293.96722 
L 193.54855 296.808824 
L 194.448448 286.941642 
L 195.348347 291.828657 
L 196.248245 287.886378 
L 198.048042 289.902428 
L 198.947941 287.05787 
L 199.847839 293.894629 
L 200.747737 296.839429 
L 201.647636 294.690759 
L 202.547534 297.726509 
L 203.447433 289.27131 
L 204.347331 290.36374 
L 205.24723 290.288711 
L 206.147128 293.725417 
L 207.047026 287.379292 
L 207.946925 290.186768 
L 208.846823 287.43423 
L 209.746722 291.732547 
L 210.64662 284.274894 
L 211.546519 293.365742 
L 212.446417 292.800186 
L 213.346315 290.861484 
L 214.246214 289.523454 
L 215.146112 288.560477 
L 216.046011 282.652165 
L 216.945909 278.504507 
L 216.945909 278.504507 
" clip-path="url(#pbc418b24e5)" style="fill: none; stroke: #1f77b4; stroke-width: 1.5; stroke-linecap: square"/>
   </g>
   <g id="patch_13">
    <path d="M 47.81 303.64 
L 47.81 186.05 
" style="fill: none; stroke: #000000; stroke-width: 0.8; stroke-linejoin: miter; stroke-linecap: square"/>
   </g>
   <g id="patch_14">
    <path d="M 225 303.64 
L 225 186.05 
" style="fill: none; stroke: #000000; stroke-width: 0.8; stroke-linejoin: miter; stroke-linecap: square"/>
   </g>
   <g id="patch_15">
    <path d="M 47.81 303.64 
L 225 303.64 
" style="fill: none; stroke: #000000; stroke-width: 0.8; stroke-linejoin: miter; stroke-linecap: square"/>
   </g>
   <g id="patch_16">
    <path d="M 47.81 186.05 
L 225 186.05 
" style="fill: none; stroke: #000000; stroke-width: 0.8; stroke-linejoin: miter; stroke-linecap: square"/>
   </g>
   <g id="text_23">
    <!-- Value loss -->
    <g transform="translate(106.43125 180.05) scale(0.12 -0.12)">
     <defs>
      <path id="DejaVuSans-56" d="M 1831 0 
L 50 4666 
L 709 4666 
L 2188 738 
L 3669 4666 
L 4325 4666 
L 2547 0 
L 1831 0 
z
" transform="scale(0.015625)"/>
      <path id="DejaVuSans-75" d="M 544 1381 
L 544 3500 
L 1119 3500 
L 1119 1403 
Q 1119 906 1312 657 
Q 1506 409 1894 409 
Q 2359 409 2629 706 
Q 2900 1003 2900 1516 
L 2900 3500 
L 3475 3500 
L 3475 0 
L 2900 0 
L 2900 538 
Q 2691 219 2414 64 
Q 2138 -91 1772 -91 
Q 1169 -91 856 284 
Q 544 659 544 1381 
z
M 1991 3584 
L 1991 3584 
z
" transform="scale(0.015625)"/>
     </defs>
     <use xlink:href="#DejaVuSans-56"/>
     <use xlink:href="#DejaVuSans-61" transform="translate(60.658203 0)"/>
     <use xlink:href="#DejaVuSans-6c" transform="translate(121.9375 0)"/>
     <use xlink:href="#DejaVuSans-75" transform="translate(149.720703 0)"/>
     <use xlink:href="#DejaVuSans-65" transform="translate(213.099609 0)"/>
     <use xlink:href="#DejaVuSans-20" transform="translate(274.623047 0)"/>
     <use xlink:href="#DejaVuSans-6c" transform="translate(306.410156 0)"/>
     <use xlink:href="#DejaVuSans-6f" transform="translate(334.193359 0)"/>
     <use xlink:href="#DejaVuSans-73" transform="translate(395.375 0)"/>
     <use xlink:href="#DejaVuSans-73" transform="translate(447.474609 0)"/>
    </g>
   </g>
  </g>
  <g id="axes_4">
   <g id="patch_17">
    <path d="M 272.81 303.64 
L 450 303.64 
L 450 186.05 
L 272.81 186.05 
z
" style="fill: #ffffff"/>
   </g>
   <g id="matplotlib.axis_7">
    <g id="xtick_13">
     <g id="line2d_26">
      <g>
       <use xlink:href="#ma0b9f7b40a" x="279.964192" y="303.64" style="stroke: #000000; stroke-width: 0.8"/>
      </g>
     </g>
     <g id="text_24">
      <!-- 0 -->
      <g transform="translate(276.782942 318.238437) scale(0.1 -0.1)">
       <use xlink:href="#DejaVuSans-30"/>
      </g>
     </g>
    </g>
    <g id="xtick_14">
     <g id="line2d_27">
      <g>
       <use xlink:href="#ma0b9f7b40a" x="324.959114" y="303.64" style="stroke: #000000; stroke-width: 0.8"/>
      </g>
     </g>
     <g id="text_25">
      <!-- 50 -->
      <g transform="translate(318.596614 318.238437) scale(0.1 -0.1)">
       <use xlink:href="#DejaVuSans-35"/>
       <use xlink:href="#DejaVuSans-30" transform="translate(63.623047 0)"/>
      </g>
     </g>
    </g>
    <g id="xtick_15">
     <g id="line2d_28">
      <g>
       <use xlink:href="#ma0b9f7b40a" x="369.954035" y="303.64" style="stroke: #000000; stroke-width: 0.8"/>
      </g>
     </g>
     <g id="text_26">
      <!-- 100 -->
      <g transform="translate(360.410285 318.238437) scale(0.1 -0.1)">
       <use xlink:href="#DejaVuSans-31"/>
       <use xlink:href="#DejaVuSans-30" transform="translate(63.623047 0)"/>
       <use xlink:href="#DejaVuSans-30" transform="translate(127.246094 0)"/>
      </g>
     </g>
    </g>
    <g id="xtick_16">
     <g id="line2d_29">
      <g>
       <use xlink:href="#ma0b9f7b40a" x="414.948956" y="303.64" style="stroke: #000000; stroke-width: 0.8"/>
      </g>
     </g>
     <g id="text_27">
      <!-- 150 -->
      <g transform="translate(405.405206 318.238437) scale(0.1 -0.1)">
       <use xlink:href="#DejaVuSans-31"/>
       <use xlink:href="#DejaVuSans-35" transform="translate(63.623047 0)"/>
       <use xlink:href="#DejaVuSans-30" transform="translate(127.246094 0)"/>
      </g>
     </g>
    </g>
    <g id="text_28">
     <!-- Iteration -->
     <g transform="translate(340.196406 331.916562) scale(0.1 -0.1)">
      <use xlink:href="#DejaVuSans-49"/>
      <use xlink:href="#DejaVuSans-74" transform="translate(29.492188 0)"/>
      <use xlink:href="#DejaVuSans-65" transform="translate(68.701172 0)"/>
      <use xlink:href="#DejaVuSans-72" transform="translate(130.224609 0)"/>
      <use xlink:href="#DejaVuSans-61" transform="translate(171.337891 0)"/>
      <use xlink:href="#DejaVuSans-74" transform="translate(232.617188 0)"/>
      <use xlink:href="#DejaVuSans-69" transform="translate(271.826172 0)"/>
      <use xlink:href="#DejaVuSans-6f" transform="translate(299.609375 0)"/>
      <use xlink:href="#DejaVuSans-6e" transform="translate(360.791016 0)"/>
     </g>
    </g>
   </g>
   <g id="matplotlib.axis_8">
    <g id="ytick_11">
     <g id="line2d_30">
      <g>
       <use xlink:href="#meccdf06155" x="272.81" y="275.840384" style="stroke: #000000; stroke-width: 0.8"/>
      </g>
     </g>
     <g id="text_29">
      <!-- 0.1 -->
      <g transform="translate(249.906875 279.639603) scale(0.1 -0.1)">
       <use xlink:href="#DejaVuSans-30"/>
       <use xlink:href="#DejaVuSans-2e" transform="translate(63.623047 0)"/>
       <use xlink:href="#DejaVuSans-31" transform="translate(95.410156 0)"/>
      </g>
     </g>
    </g>
    <g id="ytick_12">
     <g id="line2d_31">
      <g>
       <use xlink:href="#meccdf06155" x="272.81" y="237.983647" style="stroke: #000000; stroke-width: 0.8"/>
      </g>
     </g>
     <g id="text_30">
      <!-- 0.2 -->
      <g transform="translate(249.906875 241.782866) scale(0.1 -0.1)">
       <use xlink:href="#DejaVuSans-30"/>
       <use xlink:href="#DejaVuSans-2e" transform="translate(63.623047 0)"/>
       <use xlink:href="#DejaVuSans-32" transform="translate(95.410156 0)"/>
      </g>
     </g>
    </g>
    <g id="ytick_13">
     <g id="line2d_32">
      <g>
       <use xlink:href="#meccdf06155" x="272.81" y="200.12691" style="stroke: #000000; stroke-width: 0.8"/>
      </g>
     </g>
     <g id="text_31">
      <!-- 0.3 -->
      <g transform="translate(249.906875 203.926129) scale(0.1 -0.1)">
       <use xlink:href="#DejaVuSans-30"/>
       <use xlink:href="#DejaVuSans-2e" transform="translate(63.623047 0)"/>
       <use xlink:href="#DejaVuSans-33" transform="translate(95.410156 0)"/>
      </g>
     </g>
    </g>
    <g id="text_32">
     <!-- Loss -->
     <g transform="translate(243.827188 255.812187) rotate(-90) scale(0.1 -0.1)">
      <use xlink:href="#DejaVuSans-4c"/>
      <use xlink:href="#DejaVuSans-6f" transform="translate(53.962891 0)"/>
      <use xlink:href="#DejaVuSans-73" transform="translate(115.144531 0)"/>
      <use xlink:href="#DejaVuSans-73" transform="translate(167.244141 0)"/>
     </g>
    </g>
   </g>
   <g id="line2d_33">
    <path d="M 280.864091 191.395 
L 284.463685 231.195486 
L 285.363583 239.285846 
L 287.16338 252.66379 
L 288.063278 258.067156 
L 288.963177 262.483408 
L 289.863075 266.184051 
L 290.762974 269.251873 
L 292.56277 274.083434 
L 294.362567 277.586491 
L 295.262466 278.90027 
L 297.962161 282.186781 
L 299.761958 283.608823 
L 301.561755 284.191045 
L 302.461653 284.299983 
L 303.361552 284.78954 
L 305.161348 284.945924 
L 306.061247 284.897508 
L 308.760942 285.170949 
L 310.560739 284.794949 
L 311.460637 285.344816 
L 312.360536 285.533503 
L 313.260434 285.361745 
L 317.759926 285.805607 
L 318.659825 285.733345 
L 319.559723 285.43457 
L 321.35952 285.322669 
L 324.059215 284.324934 
L 325.859012 284.157445 
L 329.458606 284.849665 
L 332.158301 284.518441 
L 333.0582 284.463837 
L 334.857996 284.065203 
L 344.756879 287.892387 
L 350.15627 289.677532 
L 355.55566 291.244108 
L 363.654746 293.215616 
L 371.753832 294.776936 
L 378.953019 295.942773 
L 387.952004 297.072814 
L 392.451496 297.201763 
L 441.945909 298.295 
L 441.945909 298.295 
" clip-path="url(#p892d8c204b)" style="fill: none; stroke: #1f77b4; stroke-width: 1.5; stroke-linecap: square"/>
   </g>
   <g id="patch_18">
    <path d="M 272.81 303.64 
L 272.81 186.05 
" style="fill: none; stroke: #000000; stroke-width: 0.8; stroke-linejoin: miter; stroke-linecap: square"/>
   </g>
   <g id="patch_19">
    <path d="M 450 303.64 
L 450 186.05 
" style="fill: none; stroke: #000000; stroke-width: 0.8; stroke-linejoin: miter; stroke-linecap: square"/>
   </g>
   <g id="patch_20">
    <path d="M 272.81 303.64 
L 450 303.64 
" style="fill: none; stroke: #000000; stroke-width: 0.8; stroke-linejoin: miter; stroke-linecap: square"/>
   </g>
   <g id="patch_21">
    <path d="M 272.81 186.05 
L 450 186.05 
" style="fill: none; stroke: #000000; stroke-width: 0.8; stroke-linejoin: miter; stroke-linecap: square"/>
   </g>
   <g id="text_33">
    <!-- L2 loss -->
    <g transform="translate(340.748125 180.05) scale(0.12 -0.12)">
     <use xlink:href="#DejaVuSans-4c"/>
     <use xlink:href="#DejaVuSans-32" transform="translate(55.712891 0)"/>
     <use xlink:href="#DejaVuSans-20" transform="translate(119.335938 0)"/>
     <use xlink:href="#DejaVuSans-6c" transform="translate(151.123047 0)"/>
     <use xlink:href="#DejaVuSans-6f" transform="translate(178.90625 0)"/>
     <use xlink:href="#DejaVuSans-73" transform="translate(240.087891 0)"/>
     <use xlink:href="#DejaVuSans-73" transform="translate(292.1875 0)"/>
    </g>
   </g>
  </g>
 </g>
 <defs>
  <clipPath id="pa8c1852222">
   <rect x="47.81" y="25.44" width="177.19" height="117.59"/>
  </clipPath>
  <clipPath id="p6684e204f9">
   <rect x="272.81" y="25.44" width="177.19" height="117.59"/>
  </clipPath>
  <clipPath id="pbc418b24e5">
   <rect x="47.81" y="186.05" width="177.19" height="117.59"/>
  </clipPath>
  <clipPath id="p892d8c204b">
   <rect x="272.81" y="186.05" width="177.19" height="117.59"/>
  </clipPath>
 </defs>
</svg>
