<?xml version="1.0" encoding="UTF-8" standalone="no"?>
<!DOCTYPE svg PUBLIC "-//W3C//DTD SVG 1.1//EN"
 "http://www.w3.org/Graphics/SVG/1.1/DTD/svg11.dtd">
<!-- Generated by graphviz version 2.43.0 (0)
 -->
<!-- Title: G Pages: 1 -->
<svg width="411pt" height="548pt"
 viewBox="0.00 0.00 410.50 548.00" xmlns="http://www.w3.org/2000/svg" xmlns:xlink="http://www.w3.org/1999/xlink">
<g id="graph0" class="graph" transform="scale(1 1) rotate(0) translate(4 544)">
<title>G</title>
<polygon fill="white" stroke="transparent" points="-4,4 -4,-544 406.5,-544 406.5,4 -4,4"/>
<!-- MainThread -->
<g id="node1" class="node">
<title>MainThread</title>
<path fill="#ffe6cc" stroke="#d79b00" d="M275.5,-468C275.5,-468 224.5,-468 224.5,-468 218.5,-468 212.5,-462 212.5,-456 212.5,-456 212.5,-444 212.5,-444 212.5,-438 218.5,-432 224.5,-432 224.5,-432 275.5,-432 275.5,-432 281.5,-432 287.5,-438 287.5,-444 287.5,-444 287.5,-456 287.5,-456 287.5,-462 281.5,-468 275.5,-468"/>
<text text-anchor="middle" x="250" y="-447.5" font-family="Sans-Serif" font-size="10.00">Main Thread</text>
</g>
<!-- BatchedOutputQueue -->
<g id="node9" class="node">
<title>BatchedOutputQueue</title>
<path fill="lightgrey" stroke="transparent" d="M231.5,-396C231.5,-396 106.5,-396 106.5,-396 100.5,-396 94.5,-390 94.5,-384 94.5,-384 94.5,-372 94.5,-372 94.5,-366 100.5,-360 106.5,-360 106.5,-360 231.5,-360 231.5,-360 237.5,-360 243.5,-366 243.5,-372 243.5,-372 243.5,-384 243.5,-384 243.5,-390 237.5,-396 231.5,-396"/>
<text text-anchor="middle" x="169" y="-375.5" font-family="Sans-Serif" font-size="10.00">Batched GPU Output Queue</text>
</g>
<!-- MainThread&#45;&gt;BatchedOutputQueue -->
<g id="edge7" class="edge">
<title>MainThread&#45;&gt;BatchedOutputQueue</title>
<path fill="none" stroke="black" d="M229.98,-431.7C219.87,-422.97 207.46,-412.24 196.48,-402.75"/>
<polygon fill="black" stroke="black" points="198.65,-399.99 188.79,-396.1 194.07,-405.29 198.65,-399.99"/>
</g>
<!-- NeuralNetInputThread -->
<g id="node2" class="node">
<title>NeuralNetInputThread</title>
<path fill="#d5e8d4" stroke="#82b366" d="M386,-324C386,-324 278,-324 278,-324 272,-324 266,-318 266,-312 266,-312 266,-300 266,-300 266,-294 272,-288 278,-288 278,-288 386,-288 386,-288 392,-288 398,-294 398,-300 398,-300 398,-312 398,-312 398,-318 392,-324 386,-324"/>
<text text-anchor="middle" x="332" y="-303.5" font-family="Sans-Serif" font-size="10.00">Neural Net Input Thread</text>
</g>
<!-- BatchedInputQueue -->
<g id="node8" class="node">
<title>BatchedInputQueue</title>
<path fill="lightgrey" stroke="transparent" d="M390.5,-396C390.5,-396 273.5,-396 273.5,-396 267.5,-396 261.5,-390 261.5,-384 261.5,-384 261.5,-372 261.5,-372 261.5,-366 267.5,-360 273.5,-360 273.5,-360 390.5,-360 390.5,-360 396.5,-360 402.5,-366 402.5,-372 402.5,-372 402.5,-384 402.5,-384 402.5,-390 396.5,-396 390.5,-396"/>
<text text-anchor="middle" x="332" y="-375.5" font-family="Sans-Serif" font-size="10.00">Batched GPU Input Queue</text>
</g>
<!-- NeuralNetInputThread&#45;&gt;BatchedInputQueue -->
<g id="edge4" class="edge">
<title>NeuralNetInputThread&#45;&gt;BatchedInputQueue</title>
<path fill="none" stroke="black" d="M332,-324.1C332,-331.79 332,-341.05 332,-349.67"/>
<polygon fill="black" stroke="black" points="328.5,-349.7 332,-359.7 335.5,-349.7 328.5,-349.7"/>
</g>
<!-- NeuralNetOutputThread -->
<g id="node3" class="node">
<title>NeuralNetOutputThread</title>
<path fill="#f8cecc" stroke="#b85450" d="M227,-324C227,-324 111,-324 111,-324 105,-324 99,-318 99,-312 99,-312 99,-300 99,-300 99,-294 105,-288 111,-288 111,-288 227,-288 227,-288 233,-288 239,-294 239,-300 239,-300 239,-312 239,-312 239,-318 233,-324 227,-324"/>
<text text-anchor="middle" x="169" y="-303.5" font-family="Sans-Serif" font-size="10.00">Neural Net Output Thread</text>
</g>
<!-- OutputQueue1 -->
<g id="node10" class="node">
<title>OutputQueue1</title>
<path fill="lightgrey" stroke="transparent" d="M102,-252C102,-252 12,-252 12,-252 6,-252 0,-246 0,-240 0,-240 0,-228 0,-228 0,-222 6,-216 12,-216 12,-216 102,-216 102,-216 108,-216 114,-222 114,-228 114,-228 114,-240 114,-240 114,-246 108,-252 102,-252"/>
<text text-anchor="middle" x="57" y="-231.5" font-family="Sans-Serif" font-size="10.00">CPU Output Queue 1</text>
</g>
<!-- NeuralNetOutputThread&#45;&gt;OutputQueue1 -->
<g id="edge9" class="edge">
<title>NeuralNetOutputThread&#45;&gt;OutputQueue1</title>
<path fill="none" stroke="black" d="M141.6,-287.88C127.09,-278.81 109.08,-267.55 93.41,-257.76"/>
<polygon fill="black" stroke="black" points="94.84,-254.52 84.5,-252.19 91.13,-260.46 94.84,-254.52"/>
</g>
<!-- OutputQueue2 -->
<g id="node11" class="node">
<title>OutputQueue2</title>
<path fill="lightgrey" stroke="transparent" d="M234,-252C234,-252 144,-252 144,-252 138,-252 132,-246 132,-240 132,-240 132,-228 132,-228 132,-222 138,-216 144,-216 144,-216 234,-216 234,-216 240,-216 246,-222 246,-228 246,-228 246,-240 246,-240 246,-246 240,-252 234,-252"/>
<text text-anchor="middle" x="189" y="-231.5" font-family="Sans-Serif" font-size="10.00">CPU Output Queue 2</text>
</g>
<!-- NeuralNetOutputThread&#45;&gt;OutputQueue2 -->
<g id="edge10" class="edge">
<title>NeuralNetOutputThread&#45;&gt;OutputQueue2</title>
<path fill="none" stroke="black" d="M173.94,-287.7C176.17,-279.9 178.85,-270.51 181.33,-261.83"/>
<polygon fill="black" stroke="black" points="184.73,-262.68 184.11,-252.1 178,-260.76 184.73,-262.68"/>
</g>
<!-- SearchThread1 -->
<g id="node4" class="node">
<title>SearchThread1</title>
<path fill="#dae8fc" stroke="#6c8ebf" d="M101.5,-180C101.5,-180 32.5,-180 32.5,-180 26.5,-180 20.5,-174 20.5,-168 20.5,-168 20.5,-156 20.5,-156 20.5,-150 26.5,-144 32.5,-144 32.5,-144 101.5,-144 101.5,-144 107.5,-144 113.5,-150 113.5,-156 113.5,-156 113.5,-168 113.5,-168 113.5,-174 107.5,-180 101.5,-180"/>
<text text-anchor="middle" x="67" y="-159.5" font-family="Sans-Serif" font-size="10.00">Search Thread 1</text>
</g>
<!-- InputQueue -->
<g id="node7" class="node">
<title>InputQueue</title>
<path fill="lightgrey" stroke="transparent" d="M368.5,-252C368.5,-252 295.5,-252 295.5,-252 289.5,-252 283.5,-246 283.5,-240 283.5,-240 283.5,-228 283.5,-228 283.5,-222 289.5,-216 295.5,-216 295.5,-216 368.5,-216 368.5,-216 374.5,-216 380.5,-222 380.5,-228 380.5,-228 380.5,-240 380.5,-240 380.5,-246 374.5,-252 368.5,-252"/>
<text text-anchor="middle" x="332" y="-231.5" font-family="Sans-Serif" font-size="10.00">CPU Input Queue</text>
</g>
<!-- SearchThread1&#45;&gt;InputQueue -->
<g id="edge1" class="edge">
<title>SearchThread1&#45;&gt;InputQueue</title>
<path fill="none" stroke="black" d="M113.81,-176.38C118.26,-177.61 122.72,-178.84 127,-180 176.33,-193.36 232.55,-207.85 273.62,-218.29"/>
<polygon fill="black" stroke="black" points="272.9,-221.72 283.46,-220.79 274.62,-214.93 272.9,-221.72"/>
</g>
<!-- SearchTreeMutex -->
<g id="node12" class="node">
<title>SearchTreeMutex</title>
<path fill="lightgrey" stroke="transparent" d="M162.5,-108C162.5,-108 81.5,-108 81.5,-108 75.5,-108 69.5,-102 69.5,-96 69.5,-96 69.5,-84 69.5,-84 69.5,-78 75.5,-72 81.5,-72 81.5,-72 162.5,-72 162.5,-72 168.5,-72 174.5,-78 174.5,-84 174.5,-84 174.5,-96 174.5,-96 174.5,-102 168.5,-108 162.5,-108"/>
<text text-anchor="middle" x="122" y="-87.5" font-family="Sans-Serif" font-size="10.00">Search Tree Mutex</text>
</g>
<!-- SearchThread1&#45;&gt;SearchTreeMutex -->
<g id="edge13" class="edge">
<title>SearchThread1&#45;&gt;SearchTreeMutex</title>
<path fill="none" stroke="black" d="M86.93,-135.64C91.87,-129.35 97.17,-122.61 102.11,-116.32"/>
<polygon fill="black" stroke="black" points="84.02,-133.67 80.6,-143.7 89.53,-138 84.02,-133.67"/>
<polygon fill="black" stroke="black" points="105.13,-118.13 108.56,-108.1 99.63,-113.81 105.13,-118.13"/>
</g>
<!-- SearchThread2 -->
<g id="node5" class="node">
<title>SearchThread2</title>
<path fill="#dae8fc" stroke="#6c8ebf" d="M217.5,-180C217.5,-180 148.5,-180 148.5,-180 142.5,-180 136.5,-174 136.5,-168 136.5,-168 136.5,-156 136.5,-156 136.5,-150 142.5,-144 148.5,-144 148.5,-144 217.5,-144 217.5,-144 223.5,-144 229.5,-150 229.5,-156 229.5,-156 229.5,-168 229.5,-168 229.5,-174 223.5,-180 217.5,-180"/>
<text text-anchor="middle" x="183" y="-159.5" font-family="Sans-Serif" font-size="10.00">Search Thread 2</text>
</g>
<!-- SearchThread2&#45;&gt;InputQueue -->
<g id="edge2" class="edge">
<title>SearchThread2&#45;&gt;InputQueue</title>
<path fill="none" stroke="black" d="M219.33,-180.07C239.5,-189.54 264.78,-201.42 286.28,-211.52"/>
<polygon fill="black" stroke="black" points="285.01,-214.79 295.55,-215.88 287.99,-208.46 285.01,-214.79"/>
</g>
<!-- SearchThread2&#45;&gt;SearchTreeMutex -->
<g id="edge14" class="edge">
<title>SearchThread2&#45;&gt;SearchTreeMutex</title>
<path fill="none" stroke="black" d="M161.14,-135.92C155.49,-129.43 149.41,-122.45 143.76,-115.97"/>
<polygon fill="black" stroke="black" points="158.71,-138.46 167.92,-143.7 163.99,-133.86 158.71,-138.46"/>
<polygon fill="black" stroke="black" points="146.11,-113.34 136.91,-108.1 140.84,-117.94 146.11,-113.34"/>
</g>
<!-- NeuralNetwork -->
<g id="node6" class="node">
<title>NeuralNetwork</title>
<path fill="lightgrey" stroke="transparent" d="M283.5,-540C283.5,-540 216.5,-540 216.5,-540 210.5,-540 204.5,-534 204.5,-528 204.5,-528 204.5,-516 204.5,-516 204.5,-510 210.5,-504 216.5,-504 216.5,-504 283.5,-504 283.5,-504 289.5,-504 295.5,-510 295.5,-516 295.5,-516 295.5,-528 295.5,-528 295.5,-534 289.5,-540 283.5,-540"/>
<text text-anchor="middle" x="250" y="-519.5" font-family="Sans-Serif" font-size="10.00">Neural Network</text>
</g>
<!-- NeuralNetwork&#45;&gt;MainThread -->
<g id="edge6" class="edge">
<title>NeuralNetwork&#45;&gt;MainThread</title>
<path fill="none" stroke="black" d="M250,-493.67C250,-488.69 250,-483.49 250,-478.51"/>
<polygon fill="black" stroke="black" points="246.5,-493.7 250,-503.7 253.5,-493.7 246.5,-493.7"/>
<polygon fill="black" stroke="black" points="253.5,-478.1 250,-468.1 246.5,-478.1 253.5,-478.1"/>
</g>
<!-- InputQueue&#45;&gt;NeuralNetInputThread -->
<g id="edge3" class="edge">
<title>InputQueue&#45;&gt;NeuralNetInputThread</title>
<path fill="none" stroke="black" d="M332,-252.1C332,-259.79 332,-269.05 332,-277.67"/>
<polygon fill="black" stroke="black" points="328.5,-277.7 332,-287.7 335.5,-277.7 328.5,-277.7"/>
</g>
<!-- BatchedInputQueue&#45;&gt;MainThread -->
<g id="edge5" class="edge">
<title>BatchedInputQueue&#45;&gt;MainThread</title>
<path fill="none" stroke="black" d="M311.96,-396.1C301.77,-404.8 289.21,-415.52 278.08,-425.03"/>
<polygon fill="black" stroke="black" points="275.6,-422.54 270.27,-431.7 280.15,-427.87 275.6,-422.54"/>
</g>
<!-- BatchedOutputQueue&#45;&gt;NeuralNetOutputThread -->
<g id="edge8" class="edge">
<title>BatchedOutputQueue&#45;&gt;NeuralNetOutputThread</title>
<path fill="none" stroke="black" d="M169,-359.7C169,-351.98 169,-342.71 169,-334.11"/>
<polygon fill="black" stroke="black" points="172.5,-334.1 169,-324.1 165.5,-334.1 172.5,-334.1"/>
</g>
<!-- OutputQueue1&#45;&gt;SearchThread1 -->
<g id="edge11" class="edge">
<title>OutputQueue1&#45;&gt;SearchThread1</title>
<path fill="none" stroke="black" d="M59.47,-215.7C60.57,-207.98 61.9,-198.71 63.13,-190.11"/>
<polygon fill="black" stroke="black" points="66.61,-190.5 64.56,-180.1 59.68,-189.51 66.61,-190.5"/>
</g>
<!-- OutputQueue2&#45;&gt;SearchThread2 -->
<g id="edge12" class="edge">
<title>OutputQueue2&#45;&gt;SearchThread2</title>
<path fill="none" stroke="black" d="M187.52,-215.7C186.86,-207.98 186.06,-198.71 185.32,-190.11"/>
<polygon fill="black" stroke="black" points="188.81,-189.77 184.47,-180.1 181.83,-190.37 188.81,-189.77"/>
</g>
<!-- SearchTree -->
<g id="node13" class="node">
<title>SearchTree</title>
<path fill="lightgrey" stroke="transparent" d="M145.5,-36C145.5,-36 98.5,-36 98.5,-36 92.5,-36 86.5,-30 86.5,-24 86.5,-24 86.5,-12 86.5,-12 86.5,-6 92.5,0 98.5,0 98.5,0 145.5,0 145.5,0 151.5,0 157.5,-6 157.5,-12 157.5,-12 157.5,-24 157.5,-24 157.5,-30 151.5,-36 145.5,-36"/>
<text text-anchor="middle" x="122" y="-15.5" font-family="Sans-Serif" font-size="10.00">Search Tree</text>
</g>
<!-- SearchTreeMutex&#45;&gt;SearchTree -->
<g id="edge15" class="edge">
<title>SearchTreeMutex&#45;&gt;SearchTree</title>
<path fill="none" stroke="black" d="M122,-61.67C122,-56.69 122,-51.49 122,-46.51"/>
<polygon fill="black" stroke="black" points="118.5,-61.7 122,-71.7 125.5,-61.7 118.5,-61.7"/>
<polygon fill="black" stroke="black" points="125.5,-46.1 122,-36.1 118.5,-46.1 125.5,-46.1"/>
</g>
</g>
</svg>
